<mxfile host="app.diagrams.net" modified="2023-05-22T10:27:04.792Z" agent="Mozilla/5.0 (Macintosh; Intel Mac OS X 10_15_7) AppleWebKit/537.36 (KHTML, like Gecko) Chrome/113.0.0.0 Safari/537.36" etag="YTdNq3alSrOPmx-04OqV" version="21.3.2" type="github">
  <diagram name="Page-1" id="3tP_FfxiOayPkXnwMRCM">
    <mxGraphModel dx="2385" dy="1303" grid="1" gridSize="10" guides="1" tooltips="1" connect="1" arrows="1" fold="1" page="0" pageScale="1" pageWidth="827" pageHeight="1169" math="0" shadow="0">
      <root>
        <mxCell id="0" />
        <mxCell id="1" parent="0" />
        <mxCell id="2YJjCyJWTV4Wyj9ChP1L-1" style="edgeStyle=orthogonalEdgeStyle;rounded=0;orthogonalLoop=1;jettySize=auto;html=1;entryX=0.841;entryY=0.983;entryDx=0;entryDy=0;fontFamily=Helvetica;fontSize=16;fontColor=default;exitX=0.944;exitY=0.025;exitDx=0;exitDy=0;exitPerimeter=0;entryPerimeter=0;" parent="1" source="2YJjCyJWTV4Wyj9ChP1L-61" target="2YJjCyJWTV4Wyj9ChP1L-46" edge="1">
          <mxGeometry relative="1" as="geometry">
            <mxPoint x="780" y="1210" as="sourcePoint" />
            <Array as="points">
              <mxPoint x="550" y="1020" />
              <mxPoint x="610" y="1020" />
              <mxPoint x="610" y="890" />
              <mxPoint x="418" y="890" />
            </Array>
          </mxGeometry>
        </mxCell>
        <mxCell id="2YJjCyJWTV4Wyj9ChP1L-2" style="edgeStyle=orthogonalEdgeStyle;rounded=0;orthogonalLoop=1;jettySize=auto;html=1;fontFamily=Helvetica;fontSize=16;fontColor=default;exitX=0.593;exitY=-0.028;exitDx=0;exitDy=0;exitPerimeter=0;" parent="1" source="2YJjCyJWTV4Wyj9ChP1L-25" edge="1">
          <mxGeometry relative="1" as="geometry">
            <mxPoint x="590" y="460" as="sourcePoint" />
            <Array as="points">
              <mxPoint x="360" y="430" />
              <mxPoint x="170" y="430" />
            </Array>
            <mxPoint x="170" y="360" as="targetPoint" />
          </mxGeometry>
        </mxCell>
        <mxCell id="2YJjCyJWTV4Wyj9ChP1L-14" value="" style="group" parent="1" vertex="1" connectable="0">
          <mxGeometry x="40" y="50" width="360" height="70" as="geometry" />
        </mxCell>
        <mxCell id="2YJjCyJWTV4Wyj9ChP1L-15" value="" style="shape=table;startSize=0;container=1;collapsible=0;childLayout=tableLayout;fontSize=16;" parent="2YJjCyJWTV4Wyj9ChP1L-14" vertex="1">
          <mxGeometry y="30" width="180" height="40" as="geometry" />
        </mxCell>
        <mxCell id="2YJjCyJWTV4Wyj9ChP1L-16" value="" style="shape=tableRow;horizontal=0;startSize=0;swimlaneHead=0;swimlaneBody=0;strokeColor=inherit;top=0;left=0;bottom=0;right=0;collapsible=0;dropTarget=0;fillColor=none;points=[[0,0.5],[1,0.5]];portConstraint=eastwest;fontSize=16;" parent="2YJjCyJWTV4Wyj9ChP1L-15" vertex="1">
          <mxGeometry width="180" height="40" as="geometry" />
        </mxCell>
        <mxCell id="2YJjCyJWTV4Wyj9ChP1L-17" value="Phone number" style="shape=partialRectangle;html=1;whiteSpace=wrap;connectable=0;strokeColor=inherit;overflow=hidden;fillColor=none;top=0;left=0;bottom=0;right=0;pointerEvents=1;fontSize=16;" parent="2YJjCyJWTV4Wyj9ChP1L-16" vertex="1">
          <mxGeometry width="90" height="40" as="geometry">
            <mxRectangle width="90" height="40" as="alternateBounds" />
          </mxGeometry>
        </mxCell>
        <mxCell id="2YJjCyJWTV4Wyj9ChP1L-20" value="Email" style="shape=partialRectangle;html=1;whiteSpace=wrap;connectable=0;strokeColor=inherit;overflow=hidden;fillColor=none;top=0;left=0;bottom=0;right=0;pointerEvents=1;fontSize=16;fontStyle=4" parent="2YJjCyJWTV4Wyj9ChP1L-16" vertex="1">
          <mxGeometry x="90" width="90" height="40" as="geometry">
            <mxRectangle width="90" height="40" as="alternateBounds" />
          </mxGeometry>
        </mxCell>
        <mxCell id="2YJjCyJWTV4Wyj9ChP1L-21" value="CUSTOMER" style="text;html=1;strokeColor=none;fillColor=none;align=center;verticalAlign=middle;whiteSpace=wrap;rounded=0;fontSize=16;fontStyle=1" parent="2YJjCyJWTV4Wyj9ChP1L-14" vertex="1">
          <mxGeometry width="110" height="30" as="geometry" />
        </mxCell>
        <mxCell id="2YJjCyJWTV4Wyj9ChP1L-33" value="" style="group" parent="1" vertex="1" connectable="0">
          <mxGeometry x="40" y="530" width="540" height="70" as="geometry" />
        </mxCell>
        <mxCell id="2YJjCyJWTV4Wyj9ChP1L-34" value="ADDRESS" style="text;html=1;strokeColor=none;fillColor=none;align=center;verticalAlign=middle;whiteSpace=wrap;rounded=0;fontSize=16;fontStyle=1" parent="2YJjCyJWTV4Wyj9ChP1L-33" vertex="1">
          <mxGeometry width="99.5" height="30" as="geometry" />
        </mxCell>
        <mxCell id="2YJjCyJWTV4Wyj9ChP1L-35" value="" style="shape=table;startSize=0;container=1;collapsible=0;childLayout=tableLayout;fontSize=16;" parent="2YJjCyJWTV4Wyj9ChP1L-33" vertex="1">
          <mxGeometry y="30" width="450" height="40" as="geometry" />
        </mxCell>
        <mxCell id="2YJjCyJWTV4Wyj9ChP1L-36" value="" style="shape=tableRow;horizontal=0;startSize=0;swimlaneHead=0;swimlaneBody=0;strokeColor=inherit;top=0;left=0;bottom=0;right=0;collapsible=0;dropTarget=0;fillColor=none;points=[[0,0.5],[1,0.5]];portConstraint=eastwest;fontSize=16;" parent="2YJjCyJWTV4Wyj9ChP1L-35" vertex="1">
          <mxGeometry width="450" height="40" as="geometry" />
        </mxCell>
        <mxCell id="2YJjCyJWTV4Wyj9ChP1L-37" value="Address line 1" style="shape=partialRectangle;html=1;whiteSpace=wrap;connectable=0;strokeColor=inherit;overflow=hidden;fillColor=none;top=0;left=0;bottom=0;right=0;pointerEvents=1;fontSize=16;" parent="2YJjCyJWTV4Wyj9ChP1L-36" vertex="1">
          <mxGeometry width="90" height="40" as="geometry">
            <mxRectangle width="90" height="40" as="alternateBounds" />
          </mxGeometry>
        </mxCell>
        <mxCell id="2YJjCyJWTV4Wyj9ChP1L-38" value="Address line 2" style="shape=partialRectangle;html=1;whiteSpace=wrap;connectable=0;strokeColor=inherit;overflow=hidden;fillColor=none;top=0;left=0;bottom=0;right=0;pointerEvents=1;fontSize=16;" parent="2YJjCyJWTV4Wyj9ChP1L-36" vertex="1">
          <mxGeometry x="90" width="90" height="40" as="geometry">
            <mxRectangle width="90" height="40" as="alternateBounds" />
          </mxGeometry>
        </mxCell>
        <mxCell id="2YJjCyJWTV4Wyj9ChP1L-39" value="Suburb" style="shape=partialRectangle;html=1;whiteSpace=wrap;connectable=0;strokeColor=inherit;overflow=hidden;fillColor=none;top=0;left=0;bottom=0;right=0;pointerEvents=1;fontSize=16;" parent="2YJjCyJWTV4Wyj9ChP1L-36" vertex="1">
          <mxGeometry x="180" width="90" height="40" as="geometry">
            <mxRectangle width="90" height="40" as="alternateBounds" />
          </mxGeometry>
        </mxCell>
        <mxCell id="2YJjCyJWTV4Wyj9ChP1L-41" value="Postcode" style="shape=partialRectangle;html=1;whiteSpace=wrap;connectable=0;strokeColor=inherit;overflow=hidden;fillColor=none;top=0;left=0;bottom=0;right=0;pointerEvents=1;fontSize=16;fontStyle=0" parent="2YJjCyJWTV4Wyj9ChP1L-36" vertex="1">
          <mxGeometry x="270" width="90" height="40" as="geometry">
            <mxRectangle width="90" height="40" as="alternateBounds" />
          </mxGeometry>
        </mxCell>
        <mxCell id="2YJjCyJWTV4Wyj9ChP1L-42" value="AddressID" style="shape=partialRectangle;html=1;whiteSpace=wrap;connectable=0;strokeColor=inherit;overflow=hidden;fillColor=none;top=0;left=0;bottom=0;right=0;pointerEvents=1;fontSize=16;fontStyle=4" parent="2YJjCyJWTV4Wyj9ChP1L-36" vertex="1">
          <mxGeometry x="360" width="90" height="40" as="geometry">
            <mxRectangle width="90" height="40" as="alternateBounds" />
          </mxGeometry>
        </mxCell>
        <mxCell id="2YJjCyJWTV4Wyj9ChP1L-43" value="" style="group" parent="1" vertex="1" connectable="0">
          <mxGeometry x="40" y="770" width="450" height="70" as="geometry" />
        </mxCell>
        <mxCell id="2YJjCyJWTV4Wyj9ChP1L-44" value="PRODUCT" style="text;html=1;strokeColor=none;fillColor=none;align=center;verticalAlign=middle;whiteSpace=wrap;rounded=0;fontSize=16;fontStyle=1" parent="2YJjCyJWTV4Wyj9ChP1L-43" vertex="1">
          <mxGeometry width="100" height="30" as="geometry" />
        </mxCell>
        <mxCell id="2YJjCyJWTV4Wyj9ChP1L-45" value="" style="shape=table;startSize=0;container=1;collapsible=0;childLayout=tableLayout;fontSize=16;" parent="2YJjCyJWTV4Wyj9ChP1L-43" vertex="1">
          <mxGeometry y="30" width="450" height="40" as="geometry" />
        </mxCell>
        <mxCell id="2YJjCyJWTV4Wyj9ChP1L-46" value="" style="shape=tableRow;horizontal=0;startSize=0;swimlaneHead=0;swimlaneBody=0;strokeColor=inherit;top=0;left=0;bottom=0;right=0;collapsible=0;dropTarget=0;fillColor=none;points=[[0,0.5],[1,0.5]];portConstraint=eastwest;fontSize=16;" parent="2YJjCyJWTV4Wyj9ChP1L-45" vertex="1">
          <mxGeometry width="450" height="40" as="geometry" />
        </mxCell>
        <mxCell id="2YJjCyJWTV4Wyj9ChP1L-47" value="Amount in stock" style="shape=partialRectangle;html=1;whiteSpace=wrap;connectable=0;strokeColor=inherit;overflow=hidden;fillColor=none;top=0;left=0;bottom=0;right=0;pointerEvents=1;fontSize=16;" parent="2YJjCyJWTV4Wyj9ChP1L-46" vertex="1">
          <mxGeometry width="90" height="40" as="geometry">
            <mxRectangle width="90" height="40" as="alternateBounds" />
          </mxGeometry>
        </mxCell>
        <mxCell id="2YJjCyJWTV4Wyj9ChP1L-48" value="Name" style="shape=partialRectangle;html=1;whiteSpace=wrap;connectable=0;strokeColor=inherit;overflow=hidden;fillColor=none;top=0;left=0;bottom=0;right=0;pointerEvents=1;fontSize=16;" parent="2YJjCyJWTV4Wyj9ChP1L-46" vertex="1">
          <mxGeometry x="90" width="90" height="40" as="geometry">
            <mxRectangle width="90" height="40" as="alternateBounds" />
          </mxGeometry>
        </mxCell>
        <mxCell id="2YJjCyJWTV4Wyj9ChP1L-49" value="Use by date" style="shape=partialRectangle;html=1;whiteSpace=wrap;connectable=0;strokeColor=inherit;overflow=hidden;fillColor=none;top=0;left=0;bottom=0;right=0;pointerEvents=1;fontSize=16;" parent="2YJjCyJWTV4Wyj9ChP1L-46" vertex="1">
          <mxGeometry x="180" width="90" height="40" as="geometry">
            <mxRectangle width="90" height="40" as="alternateBounds" />
          </mxGeometry>
        </mxCell>
        <mxCell id="2YJjCyJWTV4Wyj9ChP1L-50" value="Cost per unit" style="shape=partialRectangle;html=1;whiteSpace=wrap;connectable=0;strokeColor=inherit;overflow=hidden;fillColor=none;top=0;left=0;bottom=0;right=0;pointerEvents=1;fontSize=16;fontStyle=0" parent="2YJjCyJWTV4Wyj9ChP1L-46" vertex="1">
          <mxGeometry x="270" width="90" height="40" as="geometry">
            <mxRectangle width="90" height="40" as="alternateBounds" />
          </mxGeometry>
        </mxCell>
        <mxCell id="2YJjCyJWTV4Wyj9ChP1L-51" value="Barcode" style="shape=partialRectangle;html=1;whiteSpace=wrap;connectable=0;strokeColor=inherit;overflow=hidden;fillColor=none;top=0;left=0;bottom=0;right=0;pointerEvents=1;fontSize=16;fontStyle=4" parent="2YJjCyJWTV4Wyj9ChP1L-46" vertex="1">
          <mxGeometry x="360" width="90" height="40" as="geometry">
            <mxRectangle width="90" height="40" as="alternateBounds" />
          </mxGeometry>
        </mxCell>
        <mxCell id="2YJjCyJWTV4Wyj9ChP1L-52" value="" style="group" parent="1" vertex="1" connectable="0">
          <mxGeometry x="40" y="850" width="180" height="70" as="geometry" />
        </mxCell>
        <mxCell id="2YJjCyJWTV4Wyj9ChP1L-53" value="RECIPE" style="text;html=1;strokeColor=none;fillColor=none;align=center;verticalAlign=middle;whiteSpace=wrap;rounded=0;fontSize=16;fontStyle=1" parent="2YJjCyJWTV4Wyj9ChP1L-52" vertex="1">
          <mxGeometry y="40" width="80" height="30" as="geometry" />
        </mxCell>
        <mxCell id="2YJjCyJWTV4Wyj9ChP1L-54" value="" style="shape=table;startSize=0;container=1;collapsible=0;childLayout=tableLayout;fontSize=16;" parent="2YJjCyJWTV4Wyj9ChP1L-52" vertex="1">
          <mxGeometry y="70" width="180" height="40" as="geometry" />
        </mxCell>
        <mxCell id="2YJjCyJWTV4Wyj9ChP1L-55" value="" style="shape=tableRow;horizontal=0;startSize=0;swimlaneHead=0;swimlaneBody=0;strokeColor=inherit;top=0;left=0;bottom=0;right=0;collapsible=0;dropTarget=0;fillColor=none;points=[[0,0.5],[1,0.5]];portConstraint=eastwest;fontSize=16;" parent="2YJjCyJWTV4Wyj9ChP1L-54" vertex="1">
          <mxGeometry width="180" height="40" as="geometry" />
        </mxCell>
        <mxCell id="2YJjCyJWTV4Wyj9ChP1L-56" value="Name" style="shape=partialRectangle;html=1;whiteSpace=wrap;connectable=0;strokeColor=inherit;overflow=hidden;fillColor=none;top=0;left=0;bottom=0;right=0;pointerEvents=1;fontSize=16;fontStyle=4" parent="2YJjCyJWTV4Wyj9ChP1L-55" vertex="1">
          <mxGeometry width="90" height="40" as="geometry">
            <mxRectangle width="90" height="40" as="alternateBounds" />
          </mxGeometry>
        </mxCell>
        <mxCell id="2YJjCyJWTV4Wyj9ChP1L-57" value="Instruction" style="shape=partialRectangle;html=1;whiteSpace=wrap;connectable=0;strokeColor=inherit;overflow=hidden;fillColor=none;top=0;left=0;bottom=0;right=0;pointerEvents=1;fontSize=16;" parent="2YJjCyJWTV4Wyj9ChP1L-55" vertex="1">
          <mxGeometry x="90" width="90" height="40" as="geometry">
            <mxRectangle width="90" height="40" as="alternateBounds" />
          </mxGeometry>
        </mxCell>
        <mxCell id="2YJjCyJWTV4Wyj9ChP1L-58" value="" style="group" parent="1" vertex="1" connectable="0">
          <mxGeometry x="40" y="1010" width="720" height="70" as="geometry" />
        </mxCell>
        <mxCell id="2YJjCyJWTV4Wyj9ChP1L-59" value="PROMOTION" style="text;html=1;strokeColor=none;fillColor=none;align=center;verticalAlign=middle;whiteSpace=wrap;rounded=0;fontSize=16;fontStyle=1" parent="2YJjCyJWTV4Wyj9ChP1L-58" vertex="1">
          <mxGeometry width="120" height="30" as="geometry" />
        </mxCell>
        <mxCell id="2YJjCyJWTV4Wyj9ChP1L-60" value="" style="shape=table;startSize=0;container=1;collapsible=0;childLayout=tableLayout;fontSize=16;" parent="2YJjCyJWTV4Wyj9ChP1L-58" vertex="1">
          <mxGeometry y="30" width="540" height="40" as="geometry" />
        </mxCell>
        <mxCell id="2YJjCyJWTV4Wyj9ChP1L-61" value="" style="shape=tableRow;horizontal=0;startSize=0;swimlaneHead=0;swimlaneBody=0;strokeColor=inherit;top=0;left=0;bottom=0;right=0;collapsible=0;dropTarget=0;fillColor=none;points=[[0,0.5],[1,0.5]];portConstraint=eastwest;fontSize=16;" parent="2YJjCyJWTV4Wyj9ChP1L-60" vertex="1">
          <mxGeometry width="540" height="40" as="geometry" />
        </mxCell>
        <mxCell id="2YJjCyJWTV4Wyj9ChP1L-62" value="Promotion code" style="shape=partialRectangle;html=1;whiteSpace=wrap;connectable=0;strokeColor=inherit;overflow=hidden;fillColor=none;top=0;left=0;bottom=0;right=0;pointerEvents=1;fontSize=16;fontStyle=4" parent="2YJjCyJWTV4Wyj9ChP1L-61" vertex="1">
          <mxGeometry width="90" height="40" as="geometry">
            <mxRectangle width="90" height="40" as="alternateBounds" />
          </mxGeometry>
        </mxCell>
        <mxCell id="2YJjCyJWTV4Wyj9ChP1L-64" value="Discount percentage" style="shape=partialRectangle;html=1;whiteSpace=wrap;connectable=0;strokeColor=inherit;overflow=hidden;fillColor=none;top=0;left=0;bottom=0;right=0;pointerEvents=1;fontSize=16;" parent="2YJjCyJWTV4Wyj9ChP1L-61" vertex="1">
          <mxGeometry x="90" width="90" height="40" as="geometry">
            <mxRectangle width="90" height="40" as="alternateBounds" />
          </mxGeometry>
        </mxCell>
        <mxCell id="2YJjCyJWTV4Wyj9ChP1L-65" value="Promotion description" style="shape=partialRectangle;html=1;whiteSpace=wrap;connectable=0;strokeColor=inherit;overflow=hidden;fillColor=none;top=0;left=0;bottom=0;right=0;pointerEvents=1;fontSize=16;fontStyle=0" parent="2YJjCyJWTV4Wyj9ChP1L-61" vertex="1">
          <mxGeometry x="180" width="90" height="40" as="geometry">
            <mxRectangle width="90" height="40" as="alternateBounds" />
          </mxGeometry>
        </mxCell>
        <mxCell id="2YJjCyJWTV4Wyj9ChP1L-66" value="Promotion start date" style="shape=partialRectangle;html=1;whiteSpace=wrap;connectable=0;strokeColor=inherit;overflow=hidden;fillColor=none;top=0;left=0;bottom=0;right=0;pointerEvents=1;fontSize=16;fontStyle=0" parent="2YJjCyJWTV4Wyj9ChP1L-61" vertex="1">
          <mxGeometry x="270" width="90" height="40" as="geometry">
            <mxRectangle width="90" height="40" as="alternateBounds" />
          </mxGeometry>
        </mxCell>
        <mxCell id="2YJjCyJWTV4Wyj9ChP1L-67" value="Promotion length" style="shape=partialRectangle;html=1;whiteSpace=wrap;connectable=0;strokeColor=inherit;overflow=hidden;fillColor=none;top=0;left=0;bottom=0;right=0;pointerEvents=1;fontSize=16;fontStyle=0" parent="2YJjCyJWTV4Wyj9ChP1L-61" vertex="1">
          <mxGeometry x="360" width="90" height="40" as="geometry">
            <mxRectangle width="90" height="40" as="alternateBounds" />
          </mxGeometry>
        </mxCell>
        <mxCell id="2YJjCyJWTV4Wyj9ChP1L-69" value="Product barcode" style="shape=partialRectangle;html=1;whiteSpace=wrap;connectable=0;strokeColor=inherit;overflow=hidden;fillColor=none;top=0;left=0;bottom=0;right=0;pointerEvents=1;fontSize=16;fontStyle=4" parent="2YJjCyJWTV4Wyj9ChP1L-61" vertex="1">
          <mxGeometry x="450" width="90" height="40" as="geometry">
            <mxRectangle width="90" height="40" as="alternateBounds" />
          </mxGeometry>
        </mxCell>
        <mxCell id="2YJjCyJWTV4Wyj9ChP1L-79" value="" style="group" parent="1" vertex="1" connectable="0">
          <mxGeometry x="40" y="1090" width="1110" height="70" as="geometry" />
        </mxCell>
        <mxCell id="2YJjCyJWTV4Wyj9ChP1L-80" value="" style="group" parent="2YJjCyJWTV4Wyj9ChP1L-79" vertex="1" connectable="0">
          <mxGeometry x="840" y="-560" width="270" height="70" as="geometry" />
        </mxCell>
        <mxCell id="2YJjCyJWTV4Wyj9ChP1L-81" value="" style="group" parent="2YJjCyJWTV4Wyj9ChP1L-80" vertex="1" connectable="0">
          <mxGeometry y="-120" width="270" height="70" as="geometry" />
        </mxCell>
        <mxCell id="2YJjCyJWTV4Wyj9ChP1L-82" value="" style="shape=table;startSize=0;container=1;collapsible=0;childLayout=tableLayout;fontSize=16;" parent="2YJjCyJWTV4Wyj9ChP1L-81" vertex="1">
          <mxGeometry y="30" width="270" height="40" as="geometry" />
        </mxCell>
        <mxCell id="2YJjCyJWTV4Wyj9ChP1L-83" value="" style="shape=tableRow;horizontal=0;startSize=0;swimlaneHead=0;swimlaneBody=0;strokeColor=inherit;top=0;left=0;bottom=0;right=0;collapsible=0;dropTarget=0;fillColor=none;points=[[0,0.5],[1,0.5]];portConstraint=eastwest;fontSize=16;" parent="2YJjCyJWTV4Wyj9ChP1L-82" vertex="1">
          <mxGeometry width="270" height="40" as="geometry" />
        </mxCell>
        <mxCell id="2YJjCyJWTV4Wyj9ChP1L-84" value="&lt;u&gt;SupID&lt;/u&gt;" style="shape=partialRectangle;html=1;whiteSpace=wrap;connectable=0;strokeColor=inherit;overflow=hidden;fillColor=none;top=0;left=0;bottom=0;right=0;pointerEvents=1;fontSize=16;" parent="2YJjCyJWTV4Wyj9ChP1L-83" vertex="1">
          <mxGeometry width="90" height="40" as="geometry">
            <mxRectangle width="90" height="40" as="alternateBounds" />
          </mxGeometry>
        </mxCell>
        <mxCell id="2YJjCyJWTV4Wyj9ChP1L-85" value="&lt;u&gt;StoreID&lt;/u&gt;" style="shape=partialRectangle;html=1;whiteSpace=wrap;connectable=0;strokeColor=inherit;overflow=hidden;fillColor=none;top=0;left=0;bottom=0;right=0;pointerEvents=1;fontSize=16;" parent="2YJjCyJWTV4Wyj9ChP1L-83" vertex="1">
          <mxGeometry x="90" width="90" height="40" as="geometry">
            <mxRectangle width="90" height="40" as="alternateBounds" />
          </mxGeometry>
        </mxCell>
        <mxCell id="2YJjCyJWTV4Wyj9ChP1L-86" value="ProdCode" style="shape=partialRectangle;html=1;whiteSpace=wrap;connectable=0;strokeColor=inherit;overflow=hidden;fillColor=none;top=0;left=0;bottom=0;right=0;pointerEvents=1;fontSize=16;fontStyle=4" parent="2YJjCyJWTV4Wyj9ChP1L-83" vertex="1">
          <mxGeometry x="180" width="90" height="40" as="geometry">
            <mxRectangle width="90" height="40" as="alternateBounds" />
          </mxGeometry>
        </mxCell>
        <mxCell id="2YJjCyJWTV4Wyj9ChP1L-87" value="SUPPLIES" style="text;html=1;strokeColor=none;fillColor=none;align=center;verticalAlign=middle;whiteSpace=wrap;rounded=0;fontSize=16;fontStyle=1" parent="2YJjCyJWTV4Wyj9ChP1L-81" vertex="1">
          <mxGeometry width="110" height="30" as="geometry" />
        </mxCell>
        <mxCell id="2YJjCyJWTV4Wyj9ChP1L-88" value="" style="group" parent="2YJjCyJWTV4Wyj9ChP1L-80" vertex="1" connectable="0">
          <mxGeometry width="180" height="70" as="geometry" />
        </mxCell>
        <mxCell id="2YJjCyJWTV4Wyj9ChP1L-89" value="CONTAINS" style="text;html=1;strokeColor=none;fillColor=none;align=center;verticalAlign=middle;whiteSpace=wrap;rounded=0;fontSize=16;fontStyle=1" parent="2YJjCyJWTV4Wyj9ChP1L-88" vertex="1">
          <mxGeometry width="110" height="30" as="geometry" />
        </mxCell>
        <mxCell id="2YJjCyJWTV4Wyj9ChP1L-90" value="" style="shape=table;startSize=0;container=1;collapsible=0;childLayout=tableLayout;fontSize=16;" parent="2YJjCyJWTV4Wyj9ChP1L-88" vertex="1">
          <mxGeometry y="30" width="180" height="40" as="geometry" />
        </mxCell>
        <mxCell id="2YJjCyJWTV4Wyj9ChP1L-91" value="" style="shape=tableRow;horizontal=0;startSize=0;swimlaneHead=0;swimlaneBody=0;strokeColor=inherit;top=0;left=0;bottom=0;right=0;collapsible=0;dropTarget=0;fillColor=none;points=[[0,0.5],[1,0.5]];portConstraint=eastwest;fontSize=16;" parent="2YJjCyJWTV4Wyj9ChP1L-90" vertex="1">
          <mxGeometry width="180" height="40" as="geometry" />
        </mxCell>
        <mxCell id="2YJjCyJWTV4Wyj9ChP1L-92" value="Barcode" style="shape=partialRectangle;html=1;whiteSpace=wrap;connectable=0;strokeColor=inherit;overflow=hidden;fillColor=none;top=0;left=0;bottom=0;right=0;pointerEvents=1;fontSize=16;fontStyle=4" parent="2YJjCyJWTV4Wyj9ChP1L-91" vertex="1">
          <mxGeometry width="90" height="40" as="geometry">
            <mxRectangle width="90" height="40" as="alternateBounds" />
          </mxGeometry>
        </mxCell>
        <mxCell id="2YJjCyJWTV4Wyj9ChP1L-93" value="&lt;u&gt;Order Number&lt;/u&gt;" style="shape=partialRectangle;html=1;whiteSpace=wrap;connectable=0;strokeColor=inherit;overflow=hidden;fillColor=none;top=0;left=0;bottom=0;right=0;pointerEvents=1;fontSize=16;" parent="2YJjCyJWTV4Wyj9ChP1L-91" vertex="1">
          <mxGeometry x="90" width="90" height="40" as="geometry">
            <mxRectangle width="90" height="40" as="alternateBounds" />
          </mxGeometry>
        </mxCell>
        <mxCell id="2YJjCyJWTV4Wyj9ChP1L-94" value="RECEIVES ORDER" style="text;html=1;strokeColor=none;fillColor=none;align=center;verticalAlign=middle;whiteSpace=wrap;rounded=0;fontSize=16;fontStyle=1" parent="2YJjCyJWTV4Wyj9ChP1L-79" vertex="1">
          <mxGeometry x="840" y="-800" width="170" height="30" as="geometry" />
        </mxCell>
        <mxCell id="2YJjCyJWTV4Wyj9ChP1L-95" value="" style="shape=table;startSize=0;container=1;collapsible=0;childLayout=tableLayout;fontSize=16;" parent="2YJjCyJWTV4Wyj9ChP1L-79" vertex="1">
          <mxGeometry x="840" y="-770" width="180" height="40" as="geometry" />
        </mxCell>
        <mxCell id="2YJjCyJWTV4Wyj9ChP1L-96" value="" style="shape=tableRow;horizontal=0;startSize=0;swimlaneHead=0;swimlaneBody=0;strokeColor=inherit;top=0;left=0;bottom=0;right=0;collapsible=0;dropTarget=0;fillColor=none;points=[[0,0.5],[1,0.5]];portConstraint=eastwest;fontSize=16;" parent="2YJjCyJWTV4Wyj9ChP1L-95" vertex="1">
          <mxGeometry width="180" height="40" as="geometry" />
        </mxCell>
        <mxCell id="2YJjCyJWTV4Wyj9ChP1L-97" value="AddressID" style="shape=partialRectangle;html=1;whiteSpace=wrap;connectable=0;strokeColor=inherit;overflow=hidden;fillColor=none;top=0;left=0;bottom=0;right=0;pointerEvents=1;fontSize=16;fontStyle=4" parent="2YJjCyJWTV4Wyj9ChP1L-96" vertex="1">
          <mxGeometry width="90" height="40" as="geometry">
            <mxRectangle width="90" height="40" as="alternateBounds" />
          </mxGeometry>
        </mxCell>
        <mxCell id="2YJjCyJWTV4Wyj9ChP1L-98" value="&lt;u&gt;Email&lt;/u&gt;" style="shape=partialRectangle;html=1;whiteSpace=wrap;connectable=0;strokeColor=inherit;overflow=hidden;fillColor=none;top=0;left=0;bottom=0;right=0;pointerEvents=1;fontSize=16;" parent="2YJjCyJWTV4Wyj9ChP1L-96" vertex="1">
          <mxGeometry x="90" width="90" height="40" as="geometry">
            <mxRectangle width="90" height="40" as="alternateBounds" />
          </mxGeometry>
        </mxCell>
        <mxCell id="2YJjCyJWTV4Wyj9ChP1L-99" value="SUPPLIER_CONTACT" style="text;html=1;strokeColor=none;fillColor=none;align=center;verticalAlign=middle;whiteSpace=wrap;rounded=0;fontSize=16;fontStyle=1" parent="1" vertex="1">
          <mxGeometry x="320" y="650" width="190" height="30" as="geometry" />
        </mxCell>
        <mxCell id="2YJjCyJWTV4Wyj9ChP1L-100" style="edgeStyle=orthogonalEdgeStyle;rounded=0;orthogonalLoop=1;jettySize=auto;html=1;exitX=0.824;exitY=1.008;exitDx=0;exitDy=0;exitPerimeter=0;entryX=0.824;entryY=1.05;entryDx=0;entryDy=0;entryPerimeter=0;" parent="1" source="2YJjCyJWTV4Wyj9ChP1L-102" target="2YJjCyJWTV4Wyj9ChP1L-109" edge="1">
          <mxGeometry relative="1" as="geometry">
            <mxPoint x="230" y="750" as="targetPoint" />
            <Array as="points">
              <mxPoint x="542" y="740" />
              <mxPoint x="188" y="740" />
            </Array>
          </mxGeometry>
        </mxCell>
        <mxCell id="2YJjCyJWTV4Wyj9ChP1L-101" value="" style="shape=table;startSize=0;container=1;collapsible=0;childLayout=tableLayout;fontSize=16;" parent="1" vertex="1">
          <mxGeometry x="320" y="680" width="270" height="40" as="geometry" />
        </mxCell>
        <mxCell id="2YJjCyJWTV4Wyj9ChP1L-102" value="" style="shape=tableRow;horizontal=0;startSize=0;swimlaneHead=0;swimlaneBody=0;strokeColor=inherit;top=0;left=0;bottom=0;right=0;collapsible=0;dropTarget=0;fillColor=none;points=[[0,0.5],[1,0.5]];portConstraint=eastwest;fontSize=16;" parent="2YJjCyJWTV4Wyj9ChP1L-101" vertex="1">
          <mxGeometry width="270" height="40" as="geometry" />
        </mxCell>
        <mxCell id="2YJjCyJWTV4Wyj9ChP1L-103" value="Contact Value" style="shape=partialRectangle;html=1;whiteSpace=wrap;connectable=0;strokeColor=inherit;overflow=hidden;fillColor=none;top=0;left=0;bottom=0;right=0;pointerEvents=1;fontSize=16;fontStyle=0" parent="2YJjCyJWTV4Wyj9ChP1L-102" vertex="1">
          <mxGeometry width="90" height="40" as="geometry">
            <mxRectangle width="90" height="40" as="alternateBounds" />
          </mxGeometry>
        </mxCell>
        <mxCell id="2YJjCyJWTV4Wyj9ChP1L-104" value="&lt;u&gt;Contact Type&lt;/u&gt;" style="shape=partialRectangle;html=1;whiteSpace=wrap;connectable=0;strokeColor=inherit;overflow=hidden;fillColor=none;top=0;left=0;bottom=0;right=0;pointerEvents=1;fontSize=16;" parent="2YJjCyJWTV4Wyj9ChP1L-102" vertex="1">
          <mxGeometry x="90" width="90" height="40" as="geometry">
            <mxRectangle width="90" height="40" as="alternateBounds" />
          </mxGeometry>
        </mxCell>
        <mxCell id="2YJjCyJWTV4Wyj9ChP1L-105" value="&lt;u&gt;ID&lt;/u&gt;" style="shape=partialRectangle;html=1;whiteSpace=wrap;connectable=0;strokeColor=inherit;overflow=hidden;fillColor=none;top=0;left=0;bottom=0;right=0;pointerEvents=1;fontSize=16;" parent="2YJjCyJWTV4Wyj9ChP1L-102" vertex="1">
          <mxGeometry x="180" width="90" height="40" as="geometry">
            <mxRectangle width="90" height="40" as="alternateBounds" />
          </mxGeometry>
        </mxCell>
        <mxCell id="2YJjCyJWTV4Wyj9ChP1L-113" value="" style="group" parent="1" vertex="1" connectable="0">
          <mxGeometry x="320" y="890" width="270" height="70" as="geometry" />
        </mxCell>
        <mxCell id="2YJjCyJWTV4Wyj9ChP1L-114" value="" style="shape=table;startSize=0;container=1;collapsible=0;childLayout=tableLayout;fontSize=16;" parent="2YJjCyJWTV4Wyj9ChP1L-113" vertex="1">
          <mxGeometry y="30" width="270" height="40" as="geometry" />
        </mxCell>
        <mxCell id="2YJjCyJWTV4Wyj9ChP1L-115" value="" style="shape=tableRow;horizontal=0;startSize=0;swimlaneHead=0;swimlaneBody=0;strokeColor=inherit;top=0;left=0;bottom=0;right=0;collapsible=0;dropTarget=0;fillColor=none;points=[[0,0.5],[1,0.5]];portConstraint=eastwest;fontSize=16;" parent="2YJjCyJWTV4Wyj9ChP1L-114" vertex="1">
          <mxGeometry width="270" height="40" as="geometry" />
        </mxCell>
        <mxCell id="2YJjCyJWTV4Wyj9ChP1L-116" value="&lt;u&gt;ProdName&lt;/u&gt;" style="shape=partialRectangle;html=1;whiteSpace=wrap;connectable=0;strokeColor=inherit;overflow=hidden;fillColor=none;top=0;left=0;bottom=0;right=0;pointerEvents=1;fontSize=16;" parent="2YJjCyJWTV4Wyj9ChP1L-115" vertex="1">
          <mxGeometry width="90" height="40" as="geometry">
            <mxRectangle width="90" height="40" as="alternateBounds" />
          </mxGeometry>
        </mxCell>
        <mxCell id="2YJjCyJWTV4Wyj9ChP1L-117" value="&lt;u&gt;Recipe Name&lt;br&gt;&lt;/u&gt;" style="shape=partialRectangle;html=1;whiteSpace=wrap;connectable=0;strokeColor=inherit;overflow=hidden;fillColor=none;top=0;left=0;bottom=0;right=0;pointerEvents=1;fontSize=16;" parent="2YJjCyJWTV4Wyj9ChP1L-115" vertex="1">
          <mxGeometry x="90" width="90" height="40" as="geometry">
            <mxRectangle width="90" height="40" as="alternateBounds" />
          </mxGeometry>
        </mxCell>
        <mxCell id="2YJjCyJWTV4Wyj9ChP1L-118" value="Product Quantity" style="shape=partialRectangle;html=1;whiteSpace=wrap;connectable=0;strokeColor=inherit;overflow=hidden;fillColor=none;top=0;left=0;bottom=0;right=0;pointerEvents=1;fontSize=16;fontStyle=0" parent="2YJjCyJWTV4Wyj9ChP1L-115" vertex="1">
          <mxGeometry x="180" width="90" height="40" as="geometry">
            <mxRectangle width="90" height="40" as="alternateBounds" />
          </mxGeometry>
        </mxCell>
        <mxCell id="2YJjCyJWTV4Wyj9ChP1L-119" value="INGREDIENTS" style="text;html=1;strokeColor=none;fillColor=none;align=center;verticalAlign=middle;whiteSpace=wrap;rounded=0;fontSize=16;fontStyle=1" parent="2YJjCyJWTV4Wyj9ChP1L-113" vertex="1">
          <mxGeometry width="140" height="30" as="geometry" />
        </mxCell>
        <mxCell id="2YJjCyJWTV4Wyj9ChP1L-120" value="" style="group" parent="1" vertex="1" connectable="0">
          <mxGeometry x="880" y="890" width="180" height="70" as="geometry" />
        </mxCell>
        <mxCell id="2YJjCyJWTV4Wyj9ChP1L-121" value="REQUIRES" style="text;html=1;strokeColor=none;fillColor=none;align=center;verticalAlign=middle;whiteSpace=wrap;rounded=0;fontSize=16;fontStyle=1" parent="2YJjCyJWTV4Wyj9ChP1L-120" vertex="1">
          <mxGeometry width="110" height="30" as="geometry" />
        </mxCell>
        <mxCell id="2YJjCyJWTV4Wyj9ChP1L-122" value="" style="shape=table;startSize=0;container=1;collapsible=0;childLayout=tableLayout;fontSize=16;" parent="2YJjCyJWTV4Wyj9ChP1L-120" vertex="1">
          <mxGeometry y="30" width="180" height="40" as="geometry" />
        </mxCell>
        <mxCell id="2YJjCyJWTV4Wyj9ChP1L-123" value="" style="shape=tableRow;horizontal=0;startSize=0;swimlaneHead=0;swimlaneBody=0;strokeColor=inherit;top=0;left=0;bottom=0;right=0;collapsible=0;dropTarget=0;fillColor=none;points=[[0,0.5],[1,0.5]];portConstraint=eastwest;fontSize=16;" parent="2YJjCyJWTV4Wyj9ChP1L-122" vertex="1">
          <mxGeometry width="180" height="40" as="geometry" />
        </mxCell>
        <mxCell id="2YJjCyJWTV4Wyj9ChP1L-124" value="ProdCode" style="shape=partialRectangle;html=1;whiteSpace=wrap;connectable=0;strokeColor=inherit;overflow=hidden;fillColor=none;top=0;left=0;bottom=0;right=0;pointerEvents=1;fontSize=16;fontStyle=4" parent="2YJjCyJWTV4Wyj9ChP1L-123" vertex="1">
          <mxGeometry width="90" height="40" as="geometry">
            <mxRectangle width="90" height="40" as="alternateBounds" />
          </mxGeometry>
        </mxCell>
        <mxCell id="2YJjCyJWTV4Wyj9ChP1L-125" value="&lt;u&gt;Recipe Name&lt;/u&gt;" style="shape=partialRectangle;html=1;whiteSpace=wrap;connectable=0;strokeColor=inherit;overflow=hidden;fillColor=none;top=0;left=0;bottom=0;right=0;pointerEvents=1;fontSize=16;" parent="2YJjCyJWTV4Wyj9ChP1L-123" vertex="1">
          <mxGeometry x="90" width="90" height="40" as="geometry">
            <mxRectangle width="90" height="40" as="alternateBounds" />
          </mxGeometry>
        </mxCell>
        <mxCell id="2YJjCyJWTV4Wyj9ChP1L-126" value="" style="group" parent="1" vertex="1" connectable="0">
          <mxGeometry x="1320" y="1010" width="180" height="70" as="geometry" />
        </mxCell>
        <mxCell id="2YJjCyJWTV4Wyj9ChP1L-127" value="" style="group" parent="2YJjCyJWTV4Wyj9ChP1L-126" vertex="1" connectable="0">
          <mxGeometry width="180" height="70" as="geometry" />
        </mxCell>
        <mxCell id="2YJjCyJWTV4Wyj9ChP1L-128" value="MEAT" style="text;html=1;strokeColor=none;fillColor=none;align=center;verticalAlign=middle;whiteSpace=wrap;rounded=0;fontSize=16;fontStyle=1" parent="2YJjCyJWTV4Wyj9ChP1L-127" vertex="1">
          <mxGeometry width="70" height="30" as="geometry" />
        </mxCell>
        <mxCell id="2YJjCyJWTV4Wyj9ChP1L-129" value="" style="shape=table;startSize=0;container=1;collapsible=0;childLayout=tableLayout;fontSize=16;" parent="2YJjCyJWTV4Wyj9ChP1L-127" vertex="1">
          <mxGeometry y="30" width="180" height="40" as="geometry" />
        </mxCell>
        <mxCell id="2YJjCyJWTV4Wyj9ChP1L-130" value="" style="shape=tableRow;horizontal=0;startSize=0;swimlaneHead=0;swimlaneBody=0;strokeColor=inherit;top=0;left=0;bottom=0;right=0;collapsible=0;dropTarget=0;fillColor=none;points=[[0,0.5],[1,0.5]];portConstraint=eastwest;fontSize=16;" parent="2YJjCyJWTV4Wyj9ChP1L-129" vertex="1">
          <mxGeometry width="180" height="40" as="geometry" />
        </mxCell>
        <mxCell id="2YJjCyJWTV4Wyj9ChP1L-131" value="ProdCode" style="shape=partialRectangle;html=1;whiteSpace=wrap;connectable=0;strokeColor=inherit;overflow=hidden;fillColor=none;top=0;left=0;bottom=0;right=0;pointerEvents=1;fontSize=16;fontStyle=0" parent="2YJjCyJWTV4Wyj9ChP1L-130" vertex="1">
          <mxGeometry width="90" height="40" as="geometry">
            <mxRectangle width="90" height="40" as="alternateBounds" />
          </mxGeometry>
        </mxCell>
        <mxCell id="2YJjCyJWTV4Wyj9ChP1L-132" value="&lt;span&gt;Animal&lt;/span&gt;" style="shape=partialRectangle;html=1;whiteSpace=wrap;connectable=0;strokeColor=inherit;overflow=hidden;fillColor=none;top=0;left=0;bottom=0;right=0;pointerEvents=1;fontSize=16;fontStyle=0" parent="2YJjCyJWTV4Wyj9ChP1L-130" vertex="1">
          <mxGeometry x="90" width="90" height="40" as="geometry">
            <mxRectangle width="90" height="40" as="alternateBounds" />
          </mxGeometry>
        </mxCell>
        <mxCell id="2YJjCyJWTV4Wyj9ChP1L-149" value="" style="group" parent="1" vertex="1" connectable="0">
          <mxGeometry x="880" y="50" width="270" height="70" as="geometry" />
        </mxCell>
        <mxCell id="2YJjCyJWTV4Wyj9ChP1L-150" value="PERSONAL HYGIENE" style="text;html=1;strokeColor=none;fillColor=none;align=center;verticalAlign=middle;whiteSpace=wrap;rounded=0;fontSize=16;fontStyle=1" parent="2YJjCyJWTV4Wyj9ChP1L-149" vertex="1">
          <mxGeometry x="440" y="360" width="190" height="30" as="geometry" />
        </mxCell>
        <mxCell id="2YJjCyJWTV4Wyj9ChP1L-151" value="" style="shape=table;startSize=0;container=1;collapsible=0;childLayout=tableLayout;fontSize=16;" parent="2YJjCyJWTV4Wyj9ChP1L-149" vertex="1">
          <mxGeometry x="440" y="390" width="180" height="40" as="geometry" />
        </mxCell>
        <mxCell id="2YJjCyJWTV4Wyj9ChP1L-152" value="" style="shape=tableRow;horizontal=0;startSize=0;swimlaneHead=0;swimlaneBody=0;strokeColor=inherit;top=0;left=0;bottom=0;right=0;collapsible=0;dropTarget=0;fillColor=none;points=[[0,0.5],[1,0.5]];portConstraint=eastwest;fontSize=16;" parent="2YJjCyJWTV4Wyj9ChP1L-151" vertex="1">
          <mxGeometry width="180" height="40" as="geometry" />
        </mxCell>
        <mxCell id="2YJjCyJWTV4Wyj9ChP1L-153" value="ProdCode" style="shape=partialRectangle;html=1;whiteSpace=wrap;connectable=0;strokeColor=inherit;overflow=hidden;fillColor=none;top=0;left=0;bottom=0;right=0;pointerEvents=1;fontSize=16;fontStyle=0" parent="2YJjCyJWTV4Wyj9ChP1L-152" vertex="1">
          <mxGeometry width="90" height="40" as="geometry">
            <mxRectangle width="90" height="40" as="alternateBounds" />
          </mxGeometry>
        </mxCell>
        <mxCell id="2YJjCyJWTV4Wyj9ChP1L-154" value="Scent" style="shape=partialRectangle;html=1;whiteSpace=wrap;connectable=0;strokeColor=inherit;overflow=hidden;fillColor=none;top=0;left=0;bottom=0;right=0;pointerEvents=1;fontSize=16;fontStyle=0" parent="2YJjCyJWTV4Wyj9ChP1L-152" vertex="1">
          <mxGeometry x="90" width="90" height="40" as="geometry">
            <mxRectangle width="90" height="40" as="alternateBounds" />
          </mxGeometry>
        </mxCell>
        <mxCell id="2YJjCyJWTV4Wyj9ChP1L-195" value="" style="shape=table;startSize=0;container=1;collapsible=0;childLayout=tableLayout;fontSize=16;" parent="2YJjCyJWTV4Wyj9ChP1L-149" vertex="1">
          <mxGeometry y="30" width="270" height="40" as="geometry" />
        </mxCell>
        <mxCell id="2YJjCyJWTV4Wyj9ChP1L-196" value="" style="shape=tableRow;horizontal=0;startSize=0;swimlaneHead=0;swimlaneBody=0;strokeColor=inherit;top=0;left=0;bottom=0;right=0;collapsible=0;dropTarget=0;fillColor=none;points=[[0,0.5],[1,0.5]];portConstraint=eastwest;fontSize=16;" parent="2YJjCyJWTV4Wyj9ChP1L-195" vertex="1">
          <mxGeometry width="270" height="40" as="geometry" />
        </mxCell>
        <mxCell id="2YJjCyJWTV4Wyj9ChP1L-197" value="&lt;u&gt;Phone number&lt;/u&gt;" style="shape=partialRectangle;html=1;whiteSpace=wrap;connectable=0;strokeColor=inherit;overflow=hidden;fillColor=none;top=0;left=0;bottom=0;right=0;pointerEvents=1;fontSize=16;" parent="2YJjCyJWTV4Wyj9ChP1L-196" vertex="1">
          <mxGeometry width="90" height="40" as="geometry">
            <mxRectangle width="90" height="40" as="alternateBounds" />
          </mxGeometry>
        </mxCell>
        <mxCell id="2YJjCyJWTV4Wyj9ChP1L-198" value="&lt;span&gt;First name&lt;/span&gt;" style="shape=partialRectangle;html=1;whiteSpace=wrap;connectable=0;strokeColor=inherit;overflow=hidden;fillColor=none;top=0;left=0;bottom=0;right=0;pointerEvents=1;fontSize=16;fontStyle=0" parent="2YJjCyJWTV4Wyj9ChP1L-196" vertex="1">
          <mxGeometry x="90" width="90" height="40" as="geometry">
            <mxRectangle width="90" height="40" as="alternateBounds" />
          </mxGeometry>
        </mxCell>
        <mxCell id="2YJjCyJWTV4Wyj9ChP1L-199" value="Last name" style="shape=partialRectangle;html=1;whiteSpace=wrap;connectable=0;strokeColor=inherit;overflow=hidden;fillColor=none;top=0;left=0;bottom=0;right=0;pointerEvents=1;fontSize=16;fontStyle=0" parent="2YJjCyJWTV4Wyj9ChP1L-196" vertex="1">
          <mxGeometry x="180" width="90" height="40" as="geometry">
            <mxRectangle width="90" height="40" as="alternateBounds" />
          </mxGeometry>
        </mxCell>
        <mxCell id="2YJjCyJWTV4Wyj9ChP1L-200" value="PHONE NUMBER" style="text;html=1;strokeColor=none;fillColor=none;align=center;verticalAlign=middle;whiteSpace=wrap;rounded=0;fontSize=16;fontStyle=1" parent="2YJjCyJWTV4Wyj9ChP1L-149" vertex="1">
          <mxGeometry width="160" height="30" as="geometry" />
        </mxCell>
        <mxCell id="2YJjCyJWTV4Wyj9ChP1L-155" value="CONFECTIONERY" style="text;html=1;strokeColor=none;fillColor=none;align=center;verticalAlign=middle;whiteSpace=wrap;rounded=0;fontSize=16;fontStyle=1" parent="1" vertex="1">
          <mxGeometry x="1320" y="530" width="170" height="30" as="geometry" />
        </mxCell>
        <mxCell id="2YJjCyJWTV4Wyj9ChP1L-156" value="" style="shape=table;startSize=0;container=1;collapsible=0;childLayout=tableLayout;fontSize=16;" parent="1" vertex="1">
          <mxGeometry x="1320" y="560" width="180" height="40" as="geometry" />
        </mxCell>
        <mxCell id="2YJjCyJWTV4Wyj9ChP1L-157" value="" style="shape=tableRow;horizontal=0;startSize=0;swimlaneHead=0;swimlaneBody=0;strokeColor=inherit;top=0;left=0;bottom=0;right=0;collapsible=0;dropTarget=0;fillColor=none;points=[[0,0.5],[1,0.5]];portConstraint=eastwest;fontSize=16;" parent="2YJjCyJWTV4Wyj9ChP1L-156" vertex="1">
          <mxGeometry width="180" height="40" as="geometry" />
        </mxCell>
        <mxCell id="2YJjCyJWTV4Wyj9ChP1L-158" value="ProdCode" style="shape=partialRectangle;html=1;whiteSpace=wrap;connectable=0;strokeColor=inherit;overflow=hidden;fillColor=none;top=0;left=0;bottom=0;right=0;pointerEvents=1;fontSize=16;fontStyle=0" parent="2YJjCyJWTV4Wyj9ChP1L-157" vertex="1">
          <mxGeometry width="90" height="40" as="geometry">
            <mxRectangle width="90" height="40" as="alternateBounds" />
          </mxGeometry>
        </mxCell>
        <mxCell id="2YJjCyJWTV4Wyj9ChP1L-159" value="&lt;span&gt;Type&lt;/span&gt;" style="shape=partialRectangle;html=1;whiteSpace=wrap;connectable=0;strokeColor=inherit;overflow=hidden;fillColor=none;top=0;left=0;bottom=0;right=0;pointerEvents=1;fontSize=16;fontStyle=0" parent="2YJjCyJWTV4Wyj9ChP1L-157" vertex="1">
          <mxGeometry x="90" width="90" height="40" as="geometry">
            <mxRectangle width="90" height="40" as="alternateBounds" />
          </mxGeometry>
        </mxCell>
        <mxCell id="2YJjCyJWTV4Wyj9ChP1L-160" value="" style="group" parent="1" vertex="1" connectable="0">
          <mxGeometry x="1320" y="770" width="270" height="70" as="geometry" />
        </mxCell>
        <mxCell id="2YJjCyJWTV4Wyj9ChP1L-161" value="DAIRY" style="text;html=1;strokeColor=none;fillColor=none;align=center;verticalAlign=middle;whiteSpace=wrap;rounded=0;fontSize=16;fontStyle=1" parent="2YJjCyJWTV4Wyj9ChP1L-160" vertex="1">
          <mxGeometry width="80" height="30" as="geometry" />
        </mxCell>
        <mxCell id="2YJjCyJWTV4Wyj9ChP1L-162" value="" style="shape=table;startSize=0;container=1;collapsible=0;childLayout=tableLayout;fontSize=16;" parent="2YJjCyJWTV4Wyj9ChP1L-160" vertex="1">
          <mxGeometry y="30" width="180" height="40" as="geometry" />
        </mxCell>
        <mxCell id="2YJjCyJWTV4Wyj9ChP1L-163" value="" style="shape=tableRow;horizontal=0;startSize=0;swimlaneHead=0;swimlaneBody=0;strokeColor=inherit;top=0;left=0;bottom=0;right=0;collapsible=0;dropTarget=0;fillColor=none;points=[[0,0.5],[1,0.5]];portConstraint=eastwest;fontSize=16;" parent="2YJjCyJWTV4Wyj9ChP1L-162" vertex="1">
          <mxGeometry width="180" height="40" as="geometry" />
        </mxCell>
        <mxCell id="2YJjCyJWTV4Wyj9ChP1L-164" value="ProdCode" style="shape=partialRectangle;html=1;whiteSpace=wrap;connectable=0;strokeColor=inherit;overflow=hidden;fillColor=none;top=0;left=0;bottom=0;right=0;pointerEvents=1;fontSize=16;fontStyle=0" parent="2YJjCyJWTV4Wyj9ChP1L-163" vertex="1">
          <mxGeometry width="90" height="40" as="geometry">
            <mxRectangle width="90" height="40" as="alternateBounds" />
          </mxGeometry>
        </mxCell>
        <mxCell id="2YJjCyJWTV4Wyj9ChP1L-165" value="Category" style="shape=partialRectangle;html=1;whiteSpace=wrap;connectable=0;strokeColor=inherit;overflow=hidden;fillColor=none;top=0;left=0;bottom=0;right=0;pointerEvents=1;fontSize=16;fontStyle=0" parent="2YJjCyJWTV4Wyj9ChP1L-163" vertex="1">
          <mxGeometry x="90" width="90" height="40" as="geometry">
            <mxRectangle width="90" height="40" as="alternateBounds" />
          </mxGeometry>
        </mxCell>
        <mxCell id="2YJjCyJWTV4Wyj9ChP1L-166" style="edgeStyle=orthogonalEdgeStyle;rounded=0;orthogonalLoop=1;jettySize=auto;html=1;exitX=0.25;exitY=1.008;exitDx=0;exitDy=0;exitPerimeter=0;entryX=0.926;entryY=1.001;entryDx=0;entryDy=0;entryPerimeter=0;" parent="1" source="2YJjCyJWTV4Wyj9ChP1L-96" target="2YJjCyJWTV4Wyj9ChP1L-73" edge="1">
          <mxGeometry relative="1" as="geometry">
            <Array as="points">
              <mxPoint x="925" y="380" />
              <mxPoint x="290" y="380" />
            </Array>
            <mxPoint x="440" y="360" as="targetPoint" />
          </mxGeometry>
        </mxCell>
        <mxCell id="2YJjCyJWTV4Wyj9ChP1L-167" style="edgeStyle=orthogonalEdgeStyle;rounded=0;orthogonalLoop=1;jettySize=auto;html=1;entryX=0.886;entryY=1.025;entryDx=0;entryDy=0;entryPerimeter=0;exitX=0.761;exitY=1.043;exitDx=0;exitDy=0;exitPerimeter=0;" parent="1" source="2YJjCyJWTV4Wyj9ChP1L-96" target="2YJjCyJWTV4Wyj9ChP1L-16" edge="1">
          <mxGeometry relative="1" as="geometry">
            <Array as="points">
              <mxPoint x="1017" y="380" />
              <mxPoint x="1080" y="380" />
              <mxPoint x="1080" y="140" />
              <mxPoint x="200" y="140" />
            </Array>
          </mxGeometry>
        </mxCell>
        <mxCell id="2YJjCyJWTV4Wyj9ChP1L-168" style="edgeStyle=orthogonalEdgeStyle;rounded=0;orthogonalLoop=1;jettySize=auto;html=1;exitX=0.148;exitY=1.008;exitDx=0;exitDy=0;exitPerimeter=0;" parent="1" source="2YJjCyJWTV4Wyj9ChP1L-144" edge="1">
          <mxGeometry relative="1" as="geometry">
            <mxPoint x="470" y="241" as="targetPoint" />
            <Array as="points">
              <mxPoint x="907" y="260" />
              <mxPoint x="470" y="260" />
            </Array>
          </mxGeometry>
        </mxCell>
        <mxCell id="2YJjCyJWTV4Wyj9ChP1L-170" style="edgeStyle=orthogonalEdgeStyle;rounded=0;orthogonalLoop=1;jettySize=auto;html=1;exitX=0.842;exitY=0.018;exitDx=0;exitDy=0;exitPerimeter=0;" parent="1" source="2YJjCyJWTV4Wyj9ChP1L-144" edge="1">
          <mxGeometry relative="1" as="geometry">
            <mxPoint x="180" y="121" as="targetPoint" />
            <Array as="points">
              <mxPoint x="1032" y="160" />
              <mxPoint x="180" y="160" />
              <mxPoint x="180" y="121" />
            </Array>
          </mxGeometry>
        </mxCell>
        <mxCell id="2YJjCyJWTV4Wyj9ChP1L-171" style="edgeStyle=orthogonalEdgeStyle;rounded=0;orthogonalLoop=1;jettySize=auto;html=1;entryX=0.873;entryY=0.007;entryDx=0;entryDy=0;entryPerimeter=0;exitX=0.777;exitY=1.007;exitDx=0;exitDy=0;exitPerimeter=0;" parent="1" source="2YJjCyJWTV4Wyj9ChP1L-73" target="2YJjCyJWTV4Wyj9ChP1L-36" edge="1">
          <mxGeometry relative="1" as="geometry">
            <mxPoint x="330" y="362" as="sourcePoint" />
            <Array as="points">
              <mxPoint x="250" y="410" />
              <mxPoint x="20" y="410" />
              <mxPoint x="20" y="520" />
              <mxPoint x="433" y="520" />
            </Array>
          </mxGeometry>
        </mxCell>
        <mxCell id="2YJjCyJWTV4Wyj9ChP1L-172" style="edgeStyle=orthogonalEdgeStyle;rounded=0;orthogonalLoop=1;jettySize=auto;html=1;exitX=0.494;exitY=0.007;exitDx=0;exitDy=0;exitPerimeter=0;entryX=0.593;entryY=1.026;entryDx=0;entryDy=0;entryPerimeter=0;" parent="1" source="2YJjCyJWTV4Wyj9ChP1L-83" target="2YJjCyJWTV4Wyj9ChP1L-73" edge="1">
          <mxGeometry relative="1" as="geometry">
            <mxPoint x="160" y="390" as="targetPoint" />
            <Array as="points">
              <mxPoint x="1013" y="400" />
              <mxPoint x="200" y="400" />
              <mxPoint x="200" y="380" />
            </Array>
          </mxGeometry>
        </mxCell>
        <mxCell id="2YJjCyJWTV4Wyj9ChP1L-173" style="edgeStyle=orthogonalEdgeStyle;rounded=0;orthogonalLoop=1;jettySize=auto;html=1;fontFamily=Helvetica;fontSize=16;fontColor=default;exitX=0.248;exitY=0.011;exitDx=0;exitDy=0;entryX=1;entryY=0.5;entryDx=0;entryDy=0;exitPerimeter=0;" parent="1" source="2YJjCyJWTV4Wyj9ChP1L-25" target="2YJjCyJWTV4Wyj9ChP1L-16" edge="1">
          <mxGeometry relative="1" as="geometry">
            <mxPoint x="360" y="420" as="sourcePoint" />
            <mxPoint x="360" y="120" as="targetPoint" />
            <Array as="points">
              <mxPoint x="174" y="420" />
              <mxPoint x="510" y="420" />
              <mxPoint x="510" y="100" />
            </Array>
          </mxGeometry>
        </mxCell>
        <mxCell id="2YJjCyJWTV4Wyj9ChP1L-174" style="edgeStyle=orthogonalEdgeStyle;rounded=0;orthogonalLoop=1;jettySize=auto;html=1;exitX=0.779;exitY=0.007;exitDx=0;exitDy=0;exitPerimeter=0;" parent="1" source="2YJjCyJWTV4Wyj9ChP1L-25" edge="1">
          <mxGeometry relative="1" as="geometry">
            <mxPoint x="420" y="241" as="targetPoint" />
            <Array as="points">
              <mxPoint x="461" y="430" />
              <mxPoint x="530" y="430" />
              <mxPoint x="530" y="300" />
              <mxPoint x="420" y="300" />
            </Array>
          </mxGeometry>
        </mxCell>
        <mxCell id="2YJjCyJWTV4Wyj9ChP1L-175" style="edgeStyle=orthogonalEdgeStyle;rounded=0;orthogonalLoop=1;jettySize=auto;html=1;entryX=0.825;entryY=0.006;entryDx=0;entryDy=0;entryPerimeter=0;exitX=0;exitY=0.5;exitDx=0;exitDy=0;" parent="1" source="2YJjCyJWTV4Wyj9ChP1L-83" target="2YJjCyJWTV4Wyj9ChP1L-109" edge="1">
          <mxGeometry relative="1" as="geometry">
            <Array as="points">
              <mxPoint x="860" y="460" />
              <mxPoint x="860" y="640" />
              <mxPoint x="189" y="640" />
            </Array>
          </mxGeometry>
        </mxCell>
        <mxCell id="2YJjCyJWTV4Wyj9ChP1L-176" style="edgeStyle=orthogonalEdgeStyle;rounded=0;orthogonalLoop=1;jettySize=auto;html=1;exitX=0.425;exitY=1.016;exitDx=0;exitDy=0;exitPerimeter=0;" parent="1" source="2YJjCyJWTV4Wyj9ChP1L-25" edge="1">
          <mxGeometry relative="1" as="geometry">
            <mxPoint x="270" y="490" as="sourcePoint" />
            <Array as="points">
              <mxPoint x="270" y="500" />
              <mxPoint x="450" y="500" />
              <mxPoint x="450" y="560" />
            </Array>
            <mxPoint x="450" y="560" as="targetPoint" />
          </mxGeometry>
        </mxCell>
        <mxCell id="2YJjCyJWTV4Wyj9ChP1L-177" style="edgeStyle=orthogonalEdgeStyle;rounded=0;orthogonalLoop=1;jettySize=auto;html=1;entryX=0.962;entryY=0.978;entryDx=0;entryDy=0;entryPerimeter=0;exitX=0.74;exitY=0.006;exitDx=0;exitDy=0;exitPerimeter=0;" parent="1" source="2YJjCyJWTV4Wyj9ChP1L-91" target="2YJjCyJWTV4Wyj9ChP1L-25" edge="1">
          <mxGeometry relative="1" as="geometry">
            <mxPoint x="620" y="530" as="targetPoint" />
            <Array as="points">
              <mxPoint x="1013" y="520" />
              <mxPoint x="560" y="520" />
              <mxPoint x="560" y="479" />
            </Array>
          </mxGeometry>
        </mxCell>
        <mxCell id="2YJjCyJWTV4Wyj9ChP1L-178" style="edgeStyle=orthogonalEdgeStyle;rounded=0;orthogonalLoop=1;jettySize=auto;html=1;exitX=0.827;exitY=0.991;exitDx=0;exitDy=0;exitPerimeter=0;" parent="1" source="2YJjCyJWTV4Wyj9ChP1L-83" edge="1">
          <mxGeometry relative="1" as="geometry">
            <mxPoint x="440" y="800" as="targetPoint" />
            <Array as="points">
              <mxPoint x="1103" y="760" />
              <mxPoint x="440" y="760" />
            </Array>
          </mxGeometry>
        </mxCell>
        <mxCell id="2YJjCyJWTV4Wyj9ChP1L-179" style="edgeStyle=orthogonalEdgeStyle;rounded=0;orthogonalLoop=1;jettySize=auto;html=1;exitX=0.509;exitY=1.025;exitDx=0;exitDy=0;exitPerimeter=0;" parent="1" source="2YJjCyJWTV4Wyj9ChP1L-115" edge="1">
          <mxGeometry relative="1" as="geometry">
            <mxPoint x="60" y="960" as="targetPoint" />
            <Array as="points">
              <mxPoint x="457" y="980" />
              <mxPoint x="60" y="980" />
              <mxPoint x="60" y="960" />
            </Array>
          </mxGeometry>
        </mxCell>
        <mxCell id="2YJjCyJWTV4Wyj9ChP1L-180" style="edgeStyle=orthogonalEdgeStyle;rounded=0;orthogonalLoop=1;jettySize=auto;html=1;entryX=0.386;entryY=1;entryDx=0;entryDy=0;entryPerimeter=0;exitX=0.753;exitY=1;exitDx=0;exitDy=0;exitPerimeter=0;" parent="1" source="2YJjCyJWTV4Wyj9ChP1L-123" target="2YJjCyJWTV4Wyj9ChP1L-55" edge="1">
          <mxGeometry relative="1" as="geometry">
            <Array as="points">
              <mxPoint x="1016" y="1000" />
              <mxPoint x="110" y="1000" />
            </Array>
          </mxGeometry>
        </mxCell>
        <mxCell id="2YJjCyJWTV4Wyj9ChP1L-181" style="edgeStyle=orthogonalEdgeStyle;rounded=0;orthogonalLoop=1;jettySize=auto;html=1;entryX=0.843;entryY=-0.017;entryDx=0;entryDy=0;entryPerimeter=0;exitX=0.259;exitY=0.992;exitDx=0;exitDy=0;exitPerimeter=0;" parent="1" source="2YJjCyJWTV4Wyj9ChP1L-91" target="2YJjCyJWTV4Wyj9ChP1L-46" edge="1">
          <mxGeometry relative="1" as="geometry">
            <Array as="points">
              <mxPoint x="927" y="750" />
              <mxPoint x="420" y="750" />
              <mxPoint x="420" y="799" />
            </Array>
          </mxGeometry>
        </mxCell>
        <mxCell id="2YJjCyJWTV4Wyj9ChP1L-182" style="edgeStyle=orthogonalEdgeStyle;rounded=0;orthogonalLoop=1;jettySize=auto;html=1;entryX=0.888;entryY=1.011;entryDx=0;entryDy=0;entryPerimeter=0;" parent="1" source="2YJjCyJWTV4Wyj9ChP1L-123" target="2YJjCyJWTV4Wyj9ChP1L-46" edge="1">
          <mxGeometry relative="1" as="geometry">
            <Array as="points">
              <mxPoint x="860" y="940" />
              <mxPoint x="860" y="880" />
              <mxPoint x="440" y="880" />
            </Array>
          </mxGeometry>
        </mxCell>
        <mxCell id="2YJjCyJWTV4Wyj9ChP1L-183" style="edgeStyle=orthogonalEdgeStyle;rounded=0;orthogonalLoop=1;jettySize=auto;html=1;entryX=0.935;entryY=1.011;entryDx=0;entryDy=0;entryPerimeter=0;exitX=0;exitY=0.5;exitDx=0;exitDy=0;" parent="1" source="2YJjCyJWTV4Wyj9ChP1L-130" target="2YJjCyJWTV4Wyj9ChP1L-46" edge="1">
          <mxGeometry relative="1" as="geometry">
            <Array as="points">
              <mxPoint x="1280" y="1060" />
              <mxPoint x="1280" y="870" />
              <mxPoint x="461" y="870" />
            </Array>
          </mxGeometry>
        </mxCell>
        <mxCell id="2YJjCyJWTV4Wyj9ChP1L-184" style="edgeStyle=orthogonalEdgeStyle;rounded=0;orthogonalLoop=1;jettySize=auto;html=1;entryX=0.976;entryY=1.004;entryDx=0;entryDy=0;entryPerimeter=0;exitX=0;exitY=0.5;exitDx=0;exitDy=0;" parent="1" source="2YJjCyJWTV4Wyj9ChP1L-137" target="2YJjCyJWTV4Wyj9ChP1L-46" edge="1">
          <mxGeometry relative="1" as="geometry">
            <Array as="points">
              <mxPoint x="1300" y="940" />
              <mxPoint x="1300" y="860" />
              <mxPoint x="479" y="860" />
            </Array>
          </mxGeometry>
        </mxCell>
        <mxCell id="2YJjCyJWTV4Wyj9ChP1L-185" style="edgeStyle=orthogonalEdgeStyle;rounded=0;orthogonalLoop=1;jettySize=auto;html=1;entryX=1;entryY=0.762;entryDx=0;entryDy=0;entryPerimeter=0;" parent="1" target="2YJjCyJWTV4Wyj9ChP1L-46" edge="1">
          <mxGeometry relative="1" as="geometry">
            <mxPoint x="1320" y="830" as="sourcePoint" />
            <Array as="points">
              <mxPoint x="1320" y="830" />
            </Array>
          </mxGeometry>
        </mxCell>
        <mxCell id="2YJjCyJWTV4Wyj9ChP1L-186" value="MEDICINAL" style="text;html=1;strokeColor=none;fillColor=none;align=center;verticalAlign=middle;whiteSpace=wrap;rounded=0;fontSize=16;fontStyle=1" parent="1" vertex="1">
          <mxGeometry x="1320" y="650" width="120" height="30" as="geometry" />
        </mxCell>
        <mxCell id="2YJjCyJWTV4Wyj9ChP1L-187" value="" style="shape=table;startSize=0;container=1;collapsible=0;childLayout=tableLayout;fontSize=16;" parent="1" vertex="1">
          <mxGeometry x="1320" y="680" width="270" height="40" as="geometry" />
        </mxCell>
        <mxCell id="2YJjCyJWTV4Wyj9ChP1L-188" value="" style="shape=tableRow;horizontal=0;startSize=0;swimlaneHead=0;swimlaneBody=0;strokeColor=inherit;top=0;left=0;bottom=0;right=0;collapsible=0;dropTarget=0;fillColor=none;points=[[0,0.5],[1,0.5]];portConstraint=eastwest;fontSize=16;" parent="2YJjCyJWTV4Wyj9ChP1L-187" vertex="1">
          <mxGeometry width="270" height="40" as="geometry" />
        </mxCell>
        <mxCell id="2YJjCyJWTV4Wyj9ChP1L-189" value="ProdCode" style="shape=partialRectangle;html=1;whiteSpace=wrap;connectable=0;strokeColor=inherit;overflow=hidden;fillColor=none;top=0;left=0;bottom=0;right=0;pointerEvents=1;fontSize=16;fontStyle=0" parent="2YJjCyJWTV4Wyj9ChP1L-188" vertex="1">
          <mxGeometry width="90" height="40" as="geometry">
            <mxRectangle width="90" height="40" as="alternateBounds" />
          </mxGeometry>
        </mxCell>
        <mxCell id="2YJjCyJWTV4Wyj9ChP1L-190" value="Active Ingredient" style="shape=partialRectangle;html=1;whiteSpace=wrap;connectable=0;strokeColor=inherit;overflow=hidden;fillColor=none;top=0;left=0;bottom=0;right=0;pointerEvents=1;fontSize=16;fontStyle=0" parent="2YJjCyJWTV4Wyj9ChP1L-188" vertex="1">
          <mxGeometry x="90" width="90" height="40" as="geometry">
            <mxRectangle width="90" height="40" as="alternateBounds" />
          </mxGeometry>
        </mxCell>
        <mxCell id="2YJjCyJWTV4Wyj9ChP1L-191" value="&lt;span&gt;Dosage&lt;/span&gt;" style="shape=partialRectangle;html=1;whiteSpace=wrap;connectable=0;strokeColor=inherit;overflow=hidden;fillColor=none;top=0;left=0;bottom=0;right=0;pointerEvents=1;fontSize=16;fontStyle=0" parent="2YJjCyJWTV4Wyj9ChP1L-188" vertex="1">
          <mxGeometry x="180" width="90" height="40" as="geometry">
            <mxRectangle width="90" height="40" as="alternateBounds" />
          </mxGeometry>
        </mxCell>
        <mxCell id="2YJjCyJWTV4Wyj9ChP1L-192" style="edgeStyle=orthogonalEdgeStyle;rounded=0;orthogonalLoop=1;jettySize=auto;html=1;exitX=0;exitY=0.5;exitDx=0;exitDy=0;entryX=1.002;entryY=0.249;entryDx=0;entryDy=0;entryPerimeter=0;" parent="1" source="2YJjCyJWTV4Wyj9ChP1L-188" target="2YJjCyJWTV4Wyj9ChP1L-46" edge="1">
          <mxGeometry relative="1" as="geometry">
            <mxPoint x="570" y="790" as="targetPoint" />
            <Array as="points">
              <mxPoint x="1300" y="700" />
              <mxPoint x="1300" y="810" />
            </Array>
          </mxGeometry>
        </mxCell>
        <mxCell id="2YJjCyJWTV4Wyj9ChP1L-193" style="edgeStyle=orthogonalEdgeStyle;rounded=0;orthogonalLoop=1;jettySize=auto;html=1;entryX=0.977;entryY=-0.008;entryDx=0;entryDy=0;entryPerimeter=0;exitX=0;exitY=0.5;exitDx=0;exitDy=0;" parent="1" source="2YJjCyJWTV4Wyj9ChP1L-157" target="2YJjCyJWTV4Wyj9ChP1L-46" edge="1">
          <mxGeometry relative="1" as="geometry">
            <Array as="points">
              <mxPoint x="1280" y="580" />
              <mxPoint x="1280" y="780" />
              <mxPoint x="480" y="780" />
            </Array>
          </mxGeometry>
        </mxCell>
        <mxCell id="2YJjCyJWTV4Wyj9ChP1L-194" style="edgeStyle=orthogonalEdgeStyle;rounded=0;orthogonalLoop=1;jettySize=auto;html=1;exitX=0;exitY=0.5;exitDx=0;exitDy=0;" parent="1" source="2YJjCyJWTV4Wyj9ChP1L-152" edge="1">
          <mxGeometry relative="1" as="geometry">
            <mxPoint x="460" y="800" as="targetPoint" />
            <Array as="points">
              <mxPoint x="1260" y="460" />
              <mxPoint x="1260" y="770" />
              <mxPoint x="460" y="770" />
            </Array>
          </mxGeometry>
        </mxCell>
        <mxCell id="2YJjCyJWTV4Wyj9ChP1L-134" value="" style="group" parent="1" vertex="1" connectable="0">
          <mxGeometry x="1320" y="890" width="270" height="70" as="geometry" />
        </mxCell>
        <mxCell id="2YJjCyJWTV4Wyj9ChP1L-135" value="PRODUCE" style="text;html=1;strokeColor=none;fillColor=none;align=center;verticalAlign=middle;whiteSpace=wrap;rounded=0;fontSize=16;fontStyle=1" parent="2YJjCyJWTV4Wyj9ChP1L-134" vertex="1">
          <mxGeometry width="110" height="30" as="geometry" />
        </mxCell>
        <mxCell id="2YJjCyJWTV4Wyj9ChP1L-136" value="" style="shape=table;startSize=0;container=1;collapsible=0;childLayout=tableLayout;fontSize=16;" parent="2YJjCyJWTV4Wyj9ChP1L-134" vertex="1">
          <mxGeometry y="30" width="270" height="40" as="geometry" />
        </mxCell>
        <mxCell id="2YJjCyJWTV4Wyj9ChP1L-137" value="" style="shape=tableRow;horizontal=0;startSize=0;swimlaneHead=0;swimlaneBody=0;strokeColor=inherit;top=0;left=0;bottom=0;right=0;collapsible=0;dropTarget=0;fillColor=none;points=[[0,0.5],[1,0.5]];portConstraint=eastwest;fontSize=16;" parent="2YJjCyJWTV4Wyj9ChP1L-136" vertex="1">
          <mxGeometry width="270" height="40" as="geometry" />
        </mxCell>
        <mxCell id="2YJjCyJWTV4Wyj9ChP1L-138" value="ProdCode" style="shape=partialRectangle;html=1;whiteSpace=wrap;connectable=0;strokeColor=inherit;overflow=hidden;fillColor=none;top=0;left=0;bottom=0;right=0;pointerEvents=1;fontSize=16;fontStyle=0" parent="2YJjCyJWTV4Wyj9ChP1L-137" vertex="1">
          <mxGeometry width="90" height="40" as="geometry">
            <mxRectangle width="90" height="40" as="alternateBounds" />
          </mxGeometry>
        </mxCell>
        <mxCell id="2YJjCyJWTV4Wyj9ChP1L-139" value="Name" style="shape=partialRectangle;html=1;whiteSpace=wrap;connectable=0;strokeColor=inherit;overflow=hidden;fillColor=none;top=0;left=0;bottom=0;right=0;pointerEvents=1;fontSize=16;fontStyle=0" parent="2YJjCyJWTV4Wyj9ChP1L-137" vertex="1">
          <mxGeometry x="90" width="90" height="40" as="geometry">
            <mxRectangle width="90" height="40" as="alternateBounds" />
          </mxGeometry>
        </mxCell>
        <mxCell id="2YJjCyJWTV4Wyj9ChP1L-140" value="&lt;span&gt;Organic&lt;/span&gt;" style="shape=partialRectangle;html=1;whiteSpace=wrap;connectable=0;strokeColor=inherit;overflow=hidden;fillColor=none;top=0;left=0;bottom=0;right=0;pointerEvents=1;fontSize=16;fontStyle=0" parent="2YJjCyJWTV4Wyj9ChP1L-137" vertex="1">
          <mxGeometry x="180" width="90" height="40" as="geometry">
            <mxRectangle width="90" height="40" as="alternateBounds" />
          </mxGeometry>
        </mxCell>
        <mxCell id="2YJjCyJWTV4Wyj9ChP1L-141" value="" style="group" parent="1" vertex="1" connectable="0">
          <mxGeometry x="880" y="170" width="270" height="70" as="geometry" />
        </mxCell>
        <mxCell id="2YJjCyJWTV4Wyj9ChP1L-142" value="" style="group" parent="2YJjCyJWTV4Wyj9ChP1L-141" vertex="1" connectable="0">
          <mxGeometry width="270" height="70" as="geometry" />
        </mxCell>
        <mxCell id="2YJjCyJWTV4Wyj9ChP1L-143" value="" style="shape=table;startSize=0;container=1;collapsible=0;childLayout=tableLayout;fontSize=16;" parent="2YJjCyJWTV4Wyj9ChP1L-142" vertex="1">
          <mxGeometry y="30" width="180" height="40" as="geometry" />
        </mxCell>
        <mxCell id="2YJjCyJWTV4Wyj9ChP1L-144" value="" style="shape=tableRow;horizontal=0;startSize=0;swimlaneHead=0;swimlaneBody=0;strokeColor=inherit;top=0;left=0;bottom=0;right=0;collapsible=0;dropTarget=0;fillColor=none;points=[[0,0.5],[1,0.5]];portConstraint=eastwest;fontSize=16;" parent="2YJjCyJWTV4Wyj9ChP1L-143" vertex="1">
          <mxGeometry width="180" height="40" as="geometry" />
        </mxCell>
        <mxCell id="2YJjCyJWTV4Wyj9ChP1L-145" value="&lt;u&gt;Credit Number&lt;/u&gt;" style="shape=partialRectangle;html=1;whiteSpace=wrap;connectable=0;strokeColor=inherit;overflow=hidden;fillColor=none;top=0;left=0;bottom=0;right=0;pointerEvents=1;fontSize=16;" parent="2YJjCyJWTV4Wyj9ChP1L-144" vertex="1">
          <mxGeometry width="90" height="40" as="geometry">
            <mxRectangle width="90" height="40" as="alternateBounds" />
          </mxGeometry>
        </mxCell>
        <mxCell id="2YJjCyJWTV4Wyj9ChP1L-147" value="Email" style="shape=partialRectangle;html=1;whiteSpace=wrap;connectable=0;strokeColor=inherit;overflow=hidden;fillColor=none;top=0;left=0;bottom=0;right=0;pointerEvents=1;fontSize=16;fontStyle=4" parent="2YJjCyJWTV4Wyj9ChP1L-144" vertex="1">
          <mxGeometry x="90" width="90" height="40" as="geometry">
            <mxRectangle width="90" height="40" as="alternateBounds" />
          </mxGeometry>
        </mxCell>
        <mxCell id="2YJjCyJWTV4Wyj9ChP1L-148" value="PAYS WITH" style="text;html=1;strokeColor=none;fillColor=none;align=center;verticalAlign=middle;whiteSpace=wrap;rounded=0;fontSize=16;fontStyle=1" parent="2YJjCyJWTV4Wyj9ChP1L-142" vertex="1">
          <mxGeometry width="110" height="30" as="geometry" />
        </mxCell>
        <mxCell id="2YJjCyJWTV4Wyj9ChP1L-4" value="PAYMENT METHOD" style="text;html=1;strokeColor=none;fillColor=none;align=center;verticalAlign=middle;whiteSpace=wrap;rounded=0;fontSize=16;fontStyle=1" parent="1" vertex="1">
          <mxGeometry x="40" y="170" width="169" height="30" as="geometry" />
        </mxCell>
        <mxCell id="2YJjCyJWTV4Wyj9ChP1L-5" value="" style="shape=table;startSize=0;container=1;collapsible=0;childLayout=tableLayout;fontSize=16;fontStyle=0" parent="1" vertex="1">
          <mxGeometry x="40" y="200" width="450" height="40" as="geometry" />
        </mxCell>
        <mxCell id="2YJjCyJWTV4Wyj9ChP1L-6" value="" style="shape=tableRow;horizontal=0;startSize=0;swimlaneHead=0;swimlaneBody=0;strokeColor=inherit;top=0;left=0;bottom=0;right=0;collapsible=0;dropTarget=0;fillColor=none;points=[[0,0.5],[1,0.5]];portConstraint=eastwest;fontSize=16;" parent="2YJjCyJWTV4Wyj9ChP1L-5" vertex="1">
          <mxGeometry width="450" height="40" as="geometry" />
        </mxCell>
        <mxCell id="2YJjCyJWTV4Wyj9ChP1L-7" value="Billing address" style="shape=partialRectangle;html=1;whiteSpace=wrap;connectable=0;strokeColor=inherit;overflow=hidden;fillColor=none;top=0;left=0;bottom=0;right=0;pointerEvents=1;fontSize=16;" parent="2YJjCyJWTV4Wyj9ChP1L-6" vertex="1">
          <mxGeometry width="91" height="40" as="geometry">
            <mxRectangle width="91" height="40" as="alternateBounds" />
          </mxGeometry>
        </mxCell>
        <mxCell id="2YJjCyJWTV4Wyj9ChP1L-8" value="Name on card" style="shape=partialRectangle;html=1;whiteSpace=wrap;connectable=0;strokeColor=inherit;overflow=hidden;fillColor=none;top=0;left=0;bottom=0;right=0;pointerEvents=1;fontSize=16;" parent="2YJjCyJWTV4Wyj9ChP1L-6" vertex="1">
          <mxGeometry x="91" width="89" height="40" as="geometry">
            <mxRectangle width="89" height="40" as="alternateBounds" />
          </mxGeometry>
        </mxCell>
        <mxCell id="2YJjCyJWTV4Wyj9ChP1L-9" value="Expiration date" style="shape=partialRectangle;html=1;whiteSpace=wrap;connectable=0;strokeColor=inherit;overflow=hidden;fillColor=none;top=0;left=0;bottom=0;right=0;pointerEvents=1;fontSize=16;" parent="2YJjCyJWTV4Wyj9ChP1L-6" vertex="1">
          <mxGeometry x="180" width="90" height="40" as="geometry">
            <mxRectangle width="90" height="40" as="alternateBounds" />
          </mxGeometry>
        </mxCell>
        <mxCell id="2YJjCyJWTV4Wyj9ChP1L-10" value="CVV" style="shape=partialRectangle;html=1;whiteSpace=wrap;connectable=0;strokeColor=inherit;overflow=hidden;fillColor=none;top=0;left=0;bottom=0;right=0;pointerEvents=1;fontSize=16;" parent="2YJjCyJWTV4Wyj9ChP1L-6" vertex="1">
          <mxGeometry x="270" width="90" height="40" as="geometry">
            <mxRectangle width="90" height="40" as="alternateBounds" />
          </mxGeometry>
        </mxCell>
        <mxCell id="2YJjCyJWTV4Wyj9ChP1L-11" value="Credit card number" style="shape=partialRectangle;html=1;whiteSpace=wrap;connectable=0;strokeColor=inherit;overflow=hidden;fillColor=none;top=0;left=0;bottom=0;right=0;pointerEvents=1;fontSize=16;fontStyle=4" parent="2YJjCyJWTV4Wyj9ChP1L-6" vertex="1">
          <mxGeometry x="360" width="90" height="40" as="geometry">
            <mxRectangle width="90" height="40" as="alternateBounds" />
          </mxGeometry>
        </mxCell>
        <mxCell id="2YJjCyJWTV4Wyj9ChP1L-23" value="ORDER" style="text;html=1;strokeColor=none;fillColor=none;align=center;verticalAlign=middle;whiteSpace=wrap;rounded=0;fontSize=16;fontStyle=1" parent="1" vertex="1">
          <mxGeometry x="40" y="410" width="79" height="30" as="geometry" />
        </mxCell>
        <mxCell id="2YJjCyJWTV4Wyj9ChP1L-24" value="" style="shape=table;startSize=0;container=1;collapsible=0;childLayout=tableLayout;fontSize=16;" parent="1" vertex="1">
          <mxGeometry x="40" y="440" width="540" height="40" as="geometry" />
        </mxCell>
        <mxCell id="2YJjCyJWTV4Wyj9ChP1L-25" value="" style="shape=tableRow;horizontal=0;startSize=0;swimlaneHead=0;swimlaneBody=0;strokeColor=inherit;top=0;left=0;bottom=0;right=0;collapsible=0;dropTarget=0;fillColor=none;points=[[0,0.5],[1,0.5]];portConstraint=eastwest;fontSize=16;" parent="2YJjCyJWTV4Wyj9ChP1L-24" vertex="1">
          <mxGeometry width="540" height="40" as="geometry" />
        </mxCell>
        <mxCell id="2YJjCyJWTV4Wyj9ChP1L-26" value="Order date" style="shape=partialRectangle;html=1;whiteSpace=wrap;connectable=0;strokeColor=inherit;overflow=hidden;fillColor=none;top=0;left=0;bottom=0;right=0;pointerEvents=1;fontSize=16;" parent="2YJjCyJWTV4Wyj9ChP1L-25" vertex="1">
          <mxGeometry width="90" height="40" as="geometry">
            <mxRectangle width="90" height="40" as="alternateBounds" />
          </mxGeometry>
        </mxCell>
        <mxCell id="2YJjCyJWTV4Wyj9ChP1L-28" value="Email" style="shape=partialRectangle;html=1;whiteSpace=wrap;connectable=0;strokeColor=inherit;overflow=hidden;fillColor=none;top=0;left=0;bottom=0;right=0;pointerEvents=1;fontSize=16;" parent="2YJjCyJWTV4Wyj9ChP1L-25" vertex="1">
          <mxGeometry x="90" width="90" height="40" as="geometry">
            <mxRectangle width="90" height="40" as="alternateBounds" />
          </mxGeometry>
        </mxCell>
        <mxCell id="2YJjCyJWTV4Wyj9ChP1L-29" value="AddressID" style="shape=partialRectangle;html=1;whiteSpace=wrap;connectable=0;strokeColor=inherit;overflow=hidden;fillColor=none;top=0;left=0;bottom=0;right=0;pointerEvents=1;fontSize=16;fontStyle=0" parent="2YJjCyJWTV4Wyj9ChP1L-25" vertex="1">
          <mxGeometry x="180" width="90" height="40" as="geometry">
            <mxRectangle width="90" height="40" as="alternateBounds" />
          </mxGeometry>
        </mxCell>
        <mxCell id="2YJjCyJWTV4Wyj9ChP1L-30" value="StoreID" style="shape=partialRectangle;html=1;whiteSpace=wrap;connectable=0;strokeColor=inherit;overflow=hidden;fillColor=none;top=0;left=0;bottom=0;right=0;pointerEvents=1;fontSize=16;fontStyle=0" parent="2YJjCyJWTV4Wyj9ChP1L-25" vertex="1">
          <mxGeometry x="270" width="90" height="40" as="geometry">
            <mxRectangle width="90" height="40" as="alternateBounds" />
          </mxGeometry>
        </mxCell>
        <mxCell id="2YJjCyJWTV4Wyj9ChP1L-31" value="CardNum" style="shape=partialRectangle;html=1;whiteSpace=wrap;connectable=0;strokeColor=inherit;overflow=hidden;fillColor=none;top=0;left=0;bottom=0;right=0;pointerEvents=1;fontSize=16;fontStyle=0" parent="2YJjCyJWTV4Wyj9ChP1L-25" vertex="1">
          <mxGeometry x="360" width="90" height="40" as="geometry">
            <mxRectangle width="90" height="40" as="alternateBounds" />
          </mxGeometry>
        </mxCell>
        <mxCell id="2YJjCyJWTV4Wyj9ChP1L-32" value="&lt;u&gt;Order Number&lt;/u&gt;" style="shape=partialRectangle;html=1;whiteSpace=wrap;connectable=0;strokeColor=inherit;overflow=hidden;fillColor=none;top=0;left=0;bottom=0;right=0;pointerEvents=1;fontSize=16;fontStyle=0" parent="2YJjCyJWTV4Wyj9ChP1L-25" vertex="1">
          <mxGeometry x="450" width="90" height="40" as="geometry">
            <mxRectangle width="90" height="40" as="alternateBounds" />
          </mxGeometry>
        </mxCell>
        <mxCell id="2YJjCyJWTV4Wyj9ChP1L-107" value="SUPPLIER" style="text;html=1;strokeColor=none;fillColor=none;align=center;verticalAlign=middle;whiteSpace=wrap;rounded=0;fontSize=16;fontStyle=1" parent="1" vertex="1">
          <mxGeometry x="40" y="650" width="100" height="30" as="geometry" />
        </mxCell>
        <mxCell id="2YJjCyJWTV4Wyj9ChP1L-108" value="" style="shape=table;startSize=0;container=1;collapsible=0;childLayout=tableLayout;fontSize=16;" parent="1" vertex="1">
          <mxGeometry x="40" y="680" width="180" height="40" as="geometry" />
        </mxCell>
        <mxCell id="2YJjCyJWTV4Wyj9ChP1L-109" value="" style="shape=tableRow;horizontal=0;startSize=0;swimlaneHead=0;swimlaneBody=0;strokeColor=inherit;top=0;left=0;bottom=0;right=0;collapsible=0;dropTarget=0;fillColor=none;points=[[0,0.5],[1,0.5]];portConstraint=eastwest;fontSize=16;" parent="2YJjCyJWTV4Wyj9ChP1L-108" vertex="1">
          <mxGeometry width="180" height="40" as="geometry" />
        </mxCell>
        <mxCell id="2YJjCyJWTV4Wyj9ChP1L-110" value="SupName" style="shape=partialRectangle;html=1;whiteSpace=wrap;connectable=0;strokeColor=inherit;overflow=hidden;fillColor=none;top=0;left=0;bottom=0;right=0;pointerEvents=1;fontSize=16;" parent="2YJjCyJWTV4Wyj9ChP1L-109" vertex="1">
          <mxGeometry width="90" height="40" as="geometry">
            <mxRectangle width="90" height="40" as="alternateBounds" />
          </mxGeometry>
        </mxCell>
        <mxCell id="2YJjCyJWTV4Wyj9ChP1L-112" value="SupplierID" style="shape=partialRectangle;html=1;whiteSpace=wrap;connectable=0;strokeColor=inherit;overflow=hidden;fillColor=none;top=0;left=0;bottom=0;right=0;pointerEvents=1;fontSize=16;fontStyle=4" parent="2YJjCyJWTV4Wyj9ChP1L-109" vertex="1">
          <mxGeometry x="90" width="90" height="40" as="geometry">
            <mxRectangle width="90" height="40" as="alternateBounds" />
          </mxGeometry>
        </mxCell>
        <mxCell id="2YJjCyJWTV4Wyj9ChP1L-201" style="edgeStyle=orthogonalEdgeStyle;rounded=0;orthogonalLoop=1;jettySize=auto;html=1;entryX=0;entryY=0.5;entryDx=0;entryDy=0;" parent="1" source="2YJjCyJWTV4Wyj9ChP1L-196" target="2YJjCyJWTV4Wyj9ChP1L-16" edge="1">
          <mxGeometry relative="1" as="geometry">
            <Array as="points">
              <mxPoint x="860" y="100" />
              <mxPoint x="860" y="40" />
              <mxPoint x="20" y="40" />
              <mxPoint x="20" y="100" />
            </Array>
          </mxGeometry>
        </mxCell>
        <mxCell id="2YJjCyJWTV4Wyj9ChP1L-71" value="STORE" style="text;html=1;strokeColor=none;fillColor=none;align=center;verticalAlign=middle;whiteSpace=wrap;rounded=0;fontSize=16;fontStyle=1" parent="1" vertex="1">
          <mxGeometry x="40" y="290" width="79" height="30" as="geometry" />
        </mxCell>
        <mxCell id="2YJjCyJWTV4Wyj9ChP1L-72" value="" style="shape=table;startSize=0;container=1;collapsible=0;childLayout=tableLayout;fontSize=16;" parent="1" vertex="1">
          <mxGeometry x="40" y="320" width="270" height="40" as="geometry" />
        </mxCell>
        <mxCell id="2YJjCyJWTV4Wyj9ChP1L-73" value="" style="shape=tableRow;horizontal=0;startSize=0;swimlaneHead=0;swimlaneBody=0;strokeColor=inherit;top=0;left=0;bottom=0;right=0;collapsible=0;dropTarget=0;fillColor=none;points=[[0,0.5],[1,0.5]];portConstraint=eastwest;fontSize=16;" parent="2YJjCyJWTV4Wyj9ChP1L-72" vertex="1">
          <mxGeometry width="270" height="40" as="geometry" />
        </mxCell>
        <mxCell id="2YJjCyJWTV4Wyj9ChP1L-75" value="Phone" style="shape=partialRectangle;html=1;whiteSpace=wrap;connectable=0;strokeColor=inherit;overflow=hidden;fillColor=none;top=0;left=0;bottom=0;right=0;pointerEvents=1;fontSize=16;" parent="2YJjCyJWTV4Wyj9ChP1L-73" vertex="1">
          <mxGeometry width="90" height="40" as="geometry">
            <mxRectangle width="90" height="40" as="alternateBounds" />
          </mxGeometry>
        </mxCell>
        <mxCell id="2YJjCyJWTV4Wyj9ChP1L-77" value="&lt;u&gt;StoreID&lt;/u&gt;" style="shape=partialRectangle;html=1;whiteSpace=wrap;connectable=0;strokeColor=inherit;overflow=hidden;fillColor=none;top=0;left=0;bottom=0;right=0;pointerEvents=1;fontSize=16;" parent="2YJjCyJWTV4Wyj9ChP1L-73" vertex="1">
          <mxGeometry x="90" width="90" height="40" as="geometry">
            <mxRectangle width="90" height="40" as="alternateBounds" />
          </mxGeometry>
        </mxCell>
        <mxCell id="2YJjCyJWTV4Wyj9ChP1L-78" value="AddressID" style="shape=partialRectangle;html=1;whiteSpace=wrap;connectable=0;strokeColor=inherit;overflow=hidden;fillColor=none;top=0;left=0;bottom=0;right=0;pointerEvents=1;fontSize=16;fontStyle=0" parent="2YJjCyJWTV4Wyj9ChP1L-73" vertex="1">
          <mxGeometry x="180" width="90" height="40" as="geometry">
            <mxRectangle width="90" height="40" as="alternateBounds" />
          </mxGeometry>
        </mxCell>
        <mxCell id="2YJjCyJWTV4Wyj9ChP1L-202" value="STORE_PHONE" style="text;html=1;strokeColor=none;fillColor=none;align=center;verticalAlign=middle;whiteSpace=wrap;rounded=0;fontSize=16;fontStyle=1" parent="1" vertex="1">
          <mxGeometry x="1320" y="290" width="170" height="30" as="geometry" />
        </mxCell>
        <mxCell id="2YJjCyJWTV4Wyj9ChP1L-203" value="" style="shape=table;startSize=0;container=1;collapsible=0;childLayout=tableLayout;fontSize=16;" parent="1" vertex="1">
          <mxGeometry x="1320" y="320" width="270" height="40" as="geometry" />
        </mxCell>
        <mxCell id="2YJjCyJWTV4Wyj9ChP1L-204" value="" style="shape=tableRow;horizontal=0;startSize=0;swimlaneHead=0;swimlaneBody=0;strokeColor=inherit;top=0;left=0;bottom=0;right=0;collapsible=0;dropTarget=0;fillColor=none;points=[[0,0.5],[1,0.5]];portConstraint=eastwest;fontSize=16;" parent="2YJjCyJWTV4Wyj9ChP1L-203" vertex="1">
          <mxGeometry width="270" height="40" as="geometry" />
        </mxCell>
        <mxCell id="2YJjCyJWTV4Wyj9ChP1L-207" value="Phone" style="shape=partialRectangle;html=1;whiteSpace=wrap;connectable=0;strokeColor=inherit;overflow=hidden;fillColor=none;top=0;left=0;bottom=0;right=0;pointerEvents=1;fontSize=16;fontStyle=4" parent="2YJjCyJWTV4Wyj9ChP1L-204" vertex="1">
          <mxGeometry width="90" height="40" as="geometry">
            <mxRectangle width="90" height="40" as="alternateBounds" />
          </mxGeometry>
        </mxCell>
        <mxCell id="2YJjCyJWTV4Wyj9ChP1L-205" value="Store Name" style="shape=partialRectangle;html=1;whiteSpace=wrap;connectable=0;strokeColor=inherit;overflow=hidden;fillColor=none;top=0;left=0;bottom=0;right=0;pointerEvents=1;fontSize=16;fontStyle=0" parent="2YJjCyJWTV4Wyj9ChP1L-204" vertex="1">
          <mxGeometry x="90" width="90" height="40" as="geometry">
            <mxRectangle width="90" height="40" as="alternateBounds" />
          </mxGeometry>
        </mxCell>
        <mxCell id="2YJjCyJWTV4Wyj9ChP1L-206" value="&lt;span&gt;Open Hours&lt;/span&gt;" style="shape=partialRectangle;html=1;whiteSpace=wrap;connectable=0;strokeColor=inherit;overflow=hidden;fillColor=none;top=0;left=0;bottom=0;right=0;pointerEvents=1;fontSize=16;fontStyle=0" parent="2YJjCyJWTV4Wyj9ChP1L-204" vertex="1">
          <mxGeometry x="180" width="90" height="40" as="geometry">
            <mxRectangle width="90" height="40" as="alternateBounds" />
          </mxGeometry>
        </mxCell>
        <mxCell id="2YJjCyJWTV4Wyj9ChP1L-210" value="" style="group" parent="1" vertex="1" connectable="0">
          <mxGeometry x="1320" y="170" width="270" height="70" as="geometry" />
        </mxCell>
        <mxCell id="2YJjCyJWTV4Wyj9ChP1L-211" value="" style="group" parent="2YJjCyJWTV4Wyj9ChP1L-210" vertex="1" connectable="0">
          <mxGeometry width="270" height="70" as="geometry" />
        </mxCell>
        <mxCell id="2YJjCyJWTV4Wyj9ChP1L-212" value="" style="shape=table;startSize=0;container=1;collapsible=0;childLayout=tableLayout;fontSize=16;" parent="2YJjCyJWTV4Wyj9ChP1L-211" vertex="1">
          <mxGeometry y="30" width="180" height="40" as="geometry" />
        </mxCell>
        <mxCell id="2YJjCyJWTV4Wyj9ChP1L-213" value="" style="shape=tableRow;horizontal=0;startSize=0;swimlaneHead=0;swimlaneBody=0;strokeColor=inherit;top=0;left=0;bottom=0;right=0;collapsible=0;dropTarget=0;fillColor=none;points=[[0,0.5],[1,0.5]];portConstraint=eastwest;fontSize=16;" parent="2YJjCyJWTV4Wyj9ChP1L-212" vertex="1">
          <mxGeometry width="180" height="40" as="geometry" />
        </mxCell>
        <mxCell id="2YJjCyJWTV4Wyj9ChP1L-214" value="&lt;u&gt;Postcode&lt;/u&gt;" style="shape=partialRectangle;html=1;whiteSpace=wrap;connectable=0;strokeColor=inherit;overflow=hidden;fillColor=none;top=0;left=0;bottom=0;right=0;pointerEvents=1;fontSize=16;" parent="2YJjCyJWTV4Wyj9ChP1L-213" vertex="1">
          <mxGeometry width="90" height="40" as="geometry">
            <mxRectangle width="90" height="40" as="alternateBounds" />
          </mxGeometry>
        </mxCell>
        <mxCell id="2YJjCyJWTV4Wyj9ChP1L-215" value="City" style="shape=partialRectangle;html=1;whiteSpace=wrap;connectable=0;strokeColor=inherit;overflow=hidden;fillColor=none;top=0;left=0;bottom=0;right=0;pointerEvents=1;fontSize=16;fontStyle=0" parent="2YJjCyJWTV4Wyj9ChP1L-213" vertex="1">
          <mxGeometry x="90" width="90" height="40" as="geometry">
            <mxRectangle width="90" height="40" as="alternateBounds" />
          </mxGeometry>
        </mxCell>
        <mxCell id="2YJjCyJWTV4Wyj9ChP1L-216" value="AD_POSTCODE" style="text;html=1;strokeColor=none;fillColor=none;align=center;verticalAlign=middle;whiteSpace=wrap;rounded=0;fontSize=16;fontStyle=1" parent="2YJjCyJWTV4Wyj9ChP1L-211" vertex="1">
          <mxGeometry width="150" height="30" as="geometry" />
        </mxCell>
        <mxCell id="2YJjCyJWTV4Wyj9ChP1L-217" style="edgeStyle=orthogonalEdgeStyle;rounded=0;orthogonalLoop=1;jettySize=auto;html=1;entryX=0.702;entryY=1.039;entryDx=0;entryDy=0;entryPerimeter=0;" parent="1" source="2YJjCyJWTV4Wyj9ChP1L-212" target="2YJjCyJWTV4Wyj9ChP1L-36" edge="1">
          <mxGeometry relative="1" as="geometry">
            <Array as="points">
              <mxPoint x="1300" y="220" />
              <mxPoint x="1300" y="620" />
              <mxPoint x="356" y="620" />
            </Array>
          </mxGeometry>
        </mxCell>
        <mxCell id="QjqpQAv5mFNdky954Vl5-1" style="edgeStyle=orthogonalEdgeStyle;rounded=0;orthogonalLoop=1;jettySize=auto;html=1;entryX=0;entryY=0.5;entryDx=0;entryDy=0;" edge="1" parent="1" source="2YJjCyJWTV4Wyj9ChP1L-204" target="2YJjCyJWTV4Wyj9ChP1L-73">
          <mxGeometry relative="1" as="geometry">
            <Array as="points">
              <mxPoint x="1280" y="340" />
              <mxPoint x="1280" y="280" />
              <mxPoint x="20" y="280" />
              <mxPoint x="20" y="340" />
            </Array>
          </mxGeometry>
        </mxCell>
      </root>
    </mxGraphModel>
  </diagram>
</mxfile>
